<?xml version="1.0" standalone="no"?><!DOCTYPE svg PUBLIC "-//W3C//DTD SVG 1.1//EN" "http://www.w3.org/Graphics/SVG/1.1/DTD/svg11.dtd"><svg t="1573962012612" class="icon" viewBox="0 0 1024 1024" version="1.1" xmlns="http://www.w3.org/2000/svg" p-id="1172" width="128" height="128" xmlns:xlink="http://www.w3.org/1999/xlink"><defs><style type="text/css"></style></defs><path d="M513.2 213.7m-105 0a105 105 0 1 0 210 0 105 105 0 1 0-210 0Z" fill="#F7D7FF" p-id="1173"></path><path d="M513.2 117.7c53 0 96 43 96 96s-43 96-96 96-96-43-96-96 42.9-96 96-96m0-18c-30.5 0-59.1 11.9-80.6 33.4s-33.4 50.2-33.4 80.6 11.9 59.1 33.4 80.6c21.5 21.5 50.2 33.4 80.6 33.4s59.1-11.9 80.6-33.4c21.5-21.5 33.4-50.2 33.4-80.6s-11.9-59.1-33.4-80.6-50.2-33.4-80.6-33.4z" fill="#330867" p-id="1174"></path><path d="M609.2 213.7c0 53-43 96-96 96s-96-43-96-96c21.7 37.3 43 69.3 96 69.3s57.6-25.4 96-69.3z" fill="#F0BEFC" p-id="1175"></path><path d="M438 916.9c-23.5 0-42.7-19.1-42.7-42.7V628.5c0-9.6 7.8-17.4 17.4-17.4h50.6c9.6 0 17.4 7.8 17.4 17.4v245.8c0 23.5-19.2 42.6-42.7 42.6z" fill="#EAB236" p-id="1176"></path><path d="M463.3 620.1c4.6 0 8.4 3.7 8.4 8.4v245.8c0 18.6-15.1 33.7-33.7 33.7s-33.7-15.1-33.7-33.7V628.5c0-4.6 3.7-8.4 8.4-8.4h50.6m0-18h-50.6c-14.5 0-26.4 11.8-26.4 26.4v245.8c0 28.5 23.2 51.7 51.7 51.7s51.7-23.2 51.7-51.7V628.5c0-14.6-11.9-26.4-26.4-26.4z" fill="#330867" p-id="1177"></path><path d="M588.3 916.9c-23.5 0-42.7-19.1-42.7-42.7V628.5c0-9.6 7.8-17.4 17.4-17.4h50.6c9.6 0 17.4 7.8 17.4 17.4v245.8c0 23.5-19.2 42.6-42.7 42.6z" fill="#EAB236" p-id="1178"></path><path d="M613.6 620.1c4.6 0 8.4 3.7 8.4 8.4v245.8c0 18.6-15.1 33.7-33.7 33.7s-33.7-15.1-33.7-33.7V628.5c0-4.6 3.7-8.4 8.4-8.4h50.6m0-18H563c-14.5 0-26.4 11.8-26.4 26.4v245.8c0 28.5 23.2 51.7 51.7 51.7 28.5 0 51.7-23.2 51.7-51.7V628.5c0-14.6-11.8-26.4-26.4-26.4z" fill="#330867" p-id="1179"></path><path d="M211.2 916.9c-5 0-9-4-9-9V642.8c0-5 4-9 9-9h19.5c5 0 9 4 9 9V908c0 5-4 9-9 9h-19.5z" fill="#DD365E" p-id="1180"></path><path d="M230.7 642.8V908h-19.5V642.8h19.5m0-18h-19.5c-9.9 0-18 8.1-18 18V908c0 9.9 8.1 18 18 18h19.5c9.9 0 18-8.1 18-18V642.8c0-10-8-18-18-18z" fill="#330867" p-id="1181"></path><path d="M795.6 916.9c-5 0-9-4-9-9V642.8c0-5 4-9 9-9h19.5c5 0 9 4 9 9V908c0 5-4 9-9 9h-19.5z" fill="#DD365E" p-id="1182"></path><path d="M815.1 642.8V908h-19.5V642.8h19.5m0-18h-19.5c-9.9 0-18 8.1-18 18V908c0 9.9 8.1 18 18 18h19.5c9.9 0 18-8.1 18-18V642.8c0-10-8.1-18-18-18z" fill="#330867" p-id="1183"></path><path d="M380.1 628.1c-5 0-9-4-9-9v-159l-65.5 65.5c-8.7 8.7-20.2 13.5-32.5 13.5s-23.8-4.8-32.5-13.5-13.5-20.2-13.5-32.5 4.8-23.8 13.5-32.5l124.7-124.7c1.8-1.8 3.8-3.5 5.8-4.9 0.1-4.8 4.1-8.7 9-8.7h270.8c5 0 9 4 9 9v3.4c0.4 0.4 0.9 0.8 1.3 1.2l124.7 124.7c8.7 8.7 13.5 20.2 13.5 32.5s-4.8 23.8-13.5 32.5-20.2 13.5-32.5 13.5-23.8-4.8-32.5-13.5l-61-61V619c0 5-4 9-9 9H380.1z" fill="#FFE08A" p-id="1184"></path><path d="M650.8 331.3v7.6c1.4 1 2.7 2.2 3.9 3.4L779.4 467c14.4 14.4 14.4 37.9 0 52.3-7.2 7.2-16.7 10.8-26.1 10.8s-18.9-3.6-26.1-10.8L650.8 443v176.1H380.1V438.4l-80.9 80.9c-7.2 7.2-16.7 10.8-26.1 10.8-9.5 0-18.9-3.6-26.1-10.8-14.4-14.4-14.4-37.9 0-52.3l124.7-124.7c2.6-2.6 5.4-4.7 8.5-6.3v-4.7h270.6m0-18H380.1c-8.1 0-14.9 5.3-17.2 12.7-1.4 1.1-2.7 2.4-4 3.6L234.1 454.3c-21.4 21.4-21.4 56.3 0 77.8 10.4 10.4 24.2 16.1 38.9 16.1s28.5-5.7 38.9-16.1l50.2-50.2v137.2c0 9.9 8.1 18 18 18h270.8c9.9 0 18-8.1 18-18V486.4l45.6 45.6c10.4 10.4 24.2 16.1 38.9 16.1s28.5-5.7 38.9-16.1c21.4-21.4 21.4-56.3 0-77.8L668.8 330.9c-0.2-9.8-8.2-17.6-18-17.6z" fill="#330867" p-id="1185"></path><path d="M507.5 616.6c-1.1 0-2.2-0.2-3.2-0.6L367 562.8c-3.5-1.3-5.8-4.7-5.8-8.4v-163c0-3 1.5-5.7 3.9-7.4 1.5-1 3.3-1.6 5.1-1.6 1.1 0 2.2 0.2 3.2 0.6l137.3 53.2c3.5 1.3 5.8 4.7 5.8 8.4v163c0 3-1.5 5.7-3.9 7.4-1.5 1.1-3.3 1.6-5.1 1.6z" fill="#66C1FF" p-id="1186"></path><path d="M370.2 391.5l137.3 53.2v163l-137.3-53.2v-163m0-18c-3.6 0-7.1 1.1-10.2 3.2-4.9 3.4-7.8 8.9-7.8 14.8v163c0 7.4 4.6 14.1 11.5 16.8L501 624.4c2.1 0.8 4.3 1.2 6.5 1.2 3.6 0 7.1-1.1 10.2-3.2 4.9-3.4 7.8-8.9 7.8-14.8v-163c0-7.4-4.6-14.1-11.5-16.8l-137.3-53.2c-2.1-0.7-4.4-1.1-6.5-1.1z" fill="#330867" p-id="1187"></path><path d="M518.8 616.6c-1.8 0-3.6-0.5-5.1-1.6-2.4-1.7-3.9-4.5-3.9-7.4v-163c0-3.7 2.3-7.1 5.8-8.4L652.9 383c1.1-0.4 2.2-0.6 3.2-0.6 1.8 0 3.6 0.5 5.1 1.6 2.4 1.7 3.9 4.5 3.9 7.4v163c0 3.7-2.3 7.1-5.8 8.4L522.1 616c-1.1 0.4-2.2 0.6-3.3 0.6z" fill="#66C1FF" p-id="1188"></path><path d="M656.2 391.5v163l-137.3 53.2v-163l137.3-53.2m0-18c-2.2 0-4.4 0.4-6.5 1.2l-137.3 53.2c-6.9 2.7-11.5 9.4-11.5 16.8v163c0 5.9 2.9 11.5 7.8 14.8 3 2.1 6.6 3.2 10.2 3.2 2.2 0 4.4-0.4 6.5-1.2l137.3-53.2c6.9-2.7 11.5-9.4 11.5-16.8v-163c0-5.9-2.9-11.5-7.8-14.8-3.1-2.1-6.7-3.2-10.2-3.2z" fill="#330867" p-id="1189"></path><path d="M128.2 672.5c-5 0-9-4-9-9v-28c0-5 4-9 9-9h770c5 0 9 4 9 9v28c0 5-4 9-9 9h-770z" fill="#FC6B79" p-id="1190"></path><path d="M898.2 635.5v28h-770v-28h770m0-18h-770c-9.9 0-18 8.1-18 18v28c0 9.9 8.1 18 18 18h770c9.9 0 18-8.1 18-18v-28c0-9.9-8.1-18-18-18z" fill="#330867" p-id="1191"></path><path d="M272.6 535.6c-22.7 0-41.8-16.3-45.4-38.8-1.9-12.1 1-24.3 8.2-34.2s17.9-16.5 30-18.4L391 424.4c2.4-0.4 4.8-0.6 7.2-0.6 22.7 0 41.8 16.3 45.4 38.8 1.9 12.1-1 24.3-8.2 34.2-7.2 9.9-17.9 16.5-30 18.4L279.9 535c-2.5 0.4-4.9 0.6-7.3 0.6z" fill="#FFE08A" p-id="1192"></path><path d="M398.2 432.8c17.9 0 33.6 13 36.5 31.2 3.2 20.2-10.6 39.1-30.8 42.3l-125.5 19.8c-2 0.3-3.9 0.5-5.8 0.5-17.9 0-33.6-13-36.5-31.2-3.2-20.2 10.6-39.1 30.8-42.3l125.5-19.8c1.9-0.3 3.9-0.5 5.8-0.5m0-18c-2.9 0-5.8 0.2-8.6 0.7L264 435.3c-14.5 2.3-27.3 10.1-35.9 22-8.6 11.9-12.1 26.4-9.8 40.9 2.1 13 8.7 24.9 18.8 33.4 9.9 8.4 22.5 13 35.5 13 2.9 0 5.8-0.2 8.6-0.7l125.5-19.8c14.5-2.3 27.3-10.1 35.9-22 8.6-11.9 12.1-26.4 9.8-40.9-2.1-13-8.7-24.9-18.8-33.4-9.9-8.3-22.5-13-35.4-13z" fill="#330867" p-id="1193"></path><path d="M753.7 535.6c-2.4 0-4.8-0.2-7.2-0.6L621 515.2c-12.1-1.9-22.8-8.4-30-18.4s-10.1-22.1-8.2-34.2c3.6-22.5 22.6-38.8 45.4-38.8 2.4 0 4.8 0.2 7.2 0.6l125.5 19.8c12.1 1.9 22.8 8.4 30 18.4s10.1 22.1 8.2 34.2c-3.5 22.5-22.6 38.8-45.4 38.8z" fill="#FFE08A" p-id="1194"></path><path d="M628.1 432.8c1.9 0 3.9 0.1 5.8 0.5l125.5 19.8c20.2 3.2 33.9 22.1 30.8 42.3-2.9 18.2-18.6 31.2-36.5 31.2-1.9 0-3.9-0.1-5.8-0.5l-125.5-19.8c-20.2-3.2-33.9-22.1-30.8-42.3 2.9-18.2 18.7-31.2 36.5-31.2m0-18c-13 0-25.6 4.6-35.5 13-10 8.5-16.7 20.4-18.8 33.4-4.7 29.9 15.8 58.2 45.7 62.9L745 543.9c2.9 0.5 5.8 0.7 8.6 0.7 13 0 25.6-4.6 35.5-13 10-8.5 16.7-20.4 18.8-33.4 2.3-14.5-1.2-29-9.8-40.9-8.6-11.9-21.4-19.7-35.9-22l-125.5-19.8c-2.8-0.4-5.7-0.7-8.6-0.7z" fill="#330867" p-id="1195"></path></svg>