<?xml version="1.0" standalone="no"?><!DOCTYPE svg PUBLIC "-//W3C//DTD SVG 1.1//EN" "http://www.w3.org/Graphics/SVG/1.1/DTD/svg11.dtd"><svg t="1575425408149" class="icon" viewBox="0 0 1024 1024" version="1.1" xmlns="http://www.w3.org/2000/svg" p-id="3372" xmlns:xlink="http://www.w3.org/1999/xlink" width="16" height="16"><defs><style type="text/css"></style></defs><path d="M543.709867 512l166.775466-166.843733a21.845333 21.845333 0 0 0 0-30.72l-0.9216-0.9216a21.845333 21.845333 0 0 0-30.72 0l-166.775466 167.082666-166.741334-167.082666a21.845333 21.845333 0 0 0-30.72 0l-0.9216 0.9216a21.435733 21.435733 0 0 0 0 30.72L480.4608 512 313.685333 678.843733a21.845333 21.845333 0 0 0 0 30.72l0.9216 0.9216a21.845333 21.845333 0 0 0 30.72 0l166.741334-166.843733 166.775466 166.843733a21.845333 21.845333 0 0 0 30.72 0l0.9216-0.9216a21.845333 21.845333 0 0 0 0-30.72L543.709867 512z" fill="#bfbfbf" p-id="3373"></path></svg>