<?xml version="1.0" standalone="no"?><!DOCTYPE svg PUBLIC "-//W3C//DTD SVG 1.1//EN" "http://www.w3.org/Graphics/SVG/1.1/DTD/svg11.dtd"><svg t="1575351534931" class="icon" viewBox="0 0 7826 1024" version="1.1" xmlns="http://www.w3.org/2000/svg" p-id="3734" data-spm-anchor-id="a313x.7781069.0.i0" width="244.5625" height="32" xmlns:xlink="http://www.w3.org/1999/xlink"><defs><style type="text/css"></style></defs><path d="M1082.514286 881.371429c29.257143 0 47.542857 21.942857 47.542857 51.2 0 25.6-21.942857 51.2-47.542857 51.2h-7.314286c-62.171429-3.657143-106.057143-7.314286-128-10.971429-73.142857-14.628571-138.971429-54.857143-193.828571-117.028571-14.628571-14.628571-29.257143-32.914286-47.542858-54.857143-10.971429-14.628571-10.971429-36.571429 3.657143-47.542857 7.314286-3.657143 14.628571-7.314286 21.942857-7.314286h36.571429c21.942857 0 40.228571 7.314286 54.857143 25.6 32.914286 32.914286 54.857143 58.514286 73.142857 69.485714 43.885714 29.257143 95.085714 43.885714 160.914286 43.885714 3.657143-3.657143 14.628571-3.657143 25.6-3.657142zM2336.914286 475.428571c-25.6 14.628571-43.885714-25.6-43.885715-54.857142s18.285714-62.171429 43.885715-76.8c29.257143-18.285714 51.2-36.571429 65.828571-58.514286 21.942857-25.6 47.542857-91.428571 84.114286-190.171429 10.971429-32.914286 40.228571-54.857143 76.8-54.857143 25.6 0 47.542857 21.942857 47.542857 47.542858v10.971428c-3.657143 18.285714-7.314286 32.914286-10.971429 43.885714-7.314286 29.257143-21.942857 69.485714-43.885714 120.685715v672.914285c0 29.257143-25.6 54.857143-54.857143 54.857143s-54.857143-25.6-54.857143-54.857143V405.942857c-36.571429 29.257143-73.142857 51.2-109.714285 69.485714z m1016.685714 405.942858c25.6 10.971429 51.2 47.542857 43.885714 73.142857-7.314286 25.6-36.571429 36.571429-65.828571 25.6-21.942857-7.314286-43.885714-18.285714-58.514286-29.257143-51.2-36.571429-91.428571-95.085714-113.371428-175.542857-3.657143-14.628571-10.971429-43.885714-18.285715-84.114286-3.657143-25.6 10.971429-47.542857 36.571429-51.2h7.314286c29.257143 0 58.514286 21.942857 62.171428 51.2 7.314286 36.571429 14.628571 62.171429 18.285714 76.8 14.628571 36.571429 29.257143 65.828571 51.2 84.114286 10.971429 10.971429 21.942857 18.285714 36.571429 29.257143zM2644.114286 877.714286c25.6-18.285714 43.885714-36.571429 58.514285-58.514286 18.285714-32.914286 29.257143-65.828571 36.571429-98.742857 0-7.314286 3.657143-14.628571 3.657143-25.6 3.657143-29.257143 32.914286-51.2 62.171428-51.2 25.6 0 43.885714 18.285714 43.885715 43.885714v10.971429c-18.285714 87.771429-40.228571 149.942857-54.857143 179.2-29.257143 51.2-73.142857 87.771429-131.657143 106.057143h-3.657143c-25.6 7.314286-51.2-3.657143-58.514286-29.257143-10.971429-29.257143 14.628571-62.171429 43.885715-76.8z m-2563.657143 3.657143h3.657143l69.485714-10.971429c40.228571-7.314286 76.8-18.285714 120.685714-40.228571 73.142857-32.914286 138.971429-76.8 204.8-131.657143h-365.714285c-29.257143 0-51.2-21.942857-51.2-51.2 0-29.257143 21.942857-51.2 51.2-51.2h446.171428c14.628571-25.6 21.942857-54.857143 21.942857-84.114286V256c0-29.257143 21.942857-51.2 51.2-51.2s51.2 21.942857 51.2 51.2v266.971429c0 14.628571-3.657143 40.228571-10.971428 76.8h362.057143c29.257143 0 51.2 21.942857 51.2 51.2 0 29.257143-21.942857 51.2-51.2 51.2H625.371429c-43.885714 54.857143-87.771429 102.4-135.314286 135.314285-84.114286 58.514286-153.6 91.428571-248.685714 117.028572-43.885714 10.971429-95.085714 18.285714-157.257143 21.942857-25.6 3.657143-43.885714-14.628571-43.885715-40.228572-3.657143-25.6 14.628571-47.542857 40.228572-54.857142zM58.514286 91.428571c0-29.257143 21.942857-51.2 51.2-51.2h782.628571c58.514286 0 106.057143 10.971429 138.971429 36.571429 36.571429 29.257143 54.857143 65.828571 54.857143 109.714286v138.971428c0 29.257143-21.942857 51.2-51.2 51.2-29.257143 0-51.2-21.942857-51.2-51.2V226.742857c0-32.914286-7.314286-54.857143-18.285715-65.828571-14.628571-10.971429-40.228571-18.285714-76.8-18.285715H113.371429c-29.257143 0-54.857143-21.942857-54.857143-51.2zM62.171429 292.571429c0-29.257143 21.942857-54.857143 54.857142-54.857143h354.742858c29.257143 0 51.2 21.942857 51.2 51.2 0 29.257143-21.942857 51.2-51.2 51.2H117.028571c-32.914286 7.314286-54.857143-18.285714-54.857142-47.542857z m0 168.228571c0-29.257143 21.942857-51.2 51.2-51.2h358.4c29.257143 0 51.2 21.942857 51.2 51.2 0 29.257143-21.942857 51.2-51.2 51.2H113.371429c-29.257143 0-51.2-21.942857-51.2-51.2z m1130.057142 475.428571c0-25.6 18.285714-51.2 43.885715-54.857142 58.514286-10.971429 98.742857-18.285714 109.714285-21.942858 117.028571-29.257143 241.371429-95.085714 373.028572-201.142857-3.657143-18.285714-7.314286-32.914286-14.628572-51.2-102.4 73.142857-259.657143 138.971429-471.771428 197.485715-18.285714 3.657143-36.571429-7.314286-43.885714-25.6v-7.314286c0-25.6 18.285714-47.542857 43.885714-54.857143 47.542857-10.971429 76.8-18.285714 95.085714-21.942857 65.828571-21.942857 138.971429-54.857143 223.085714-102.4 36.571429-21.942857 73.142857-43.885714 109.714286-73.142857-7.314286-10.971429-14.628571-21.942857-25.6-29.257143-80.457143 40.228571-146.285714 69.485714-204.8 87.771428-40.228571 14.628571-106.057143 29.257143-197.485714 47.542858-21.942857 3.657143-43.885714-10.971429-47.542857-32.914286V585.142857c0-29.257143 18.285714-51.2 43.885714-58.514286 65.828571-14.628571 113.371429-25.6 142.628571-36.571428 73.142857-21.942857 153.6-58.514286 237.714286-106.057143h-362.057143c-25.6 0-51.2-21.942857-51.2-51.2 0-25.6 21.942857-51.2 51.2-51.2h906.971429c25.6 0 51.2 21.942857 51.2 51.2 0 25.6-21.942857 51.2-51.2 51.2h-354.742857l-32.914286 21.942857-36.571429 21.942857c29.257143 40.228571 47.542857 80.457143 62.171429 120.685715 131.657143-58.514286 212.114286-95.085714 245.028571-106.057143 29.257143-7.314286 69.485714-18.285714 120.685715-25.6 25.6-3.657143 47.542857 14.628571 51.2 40.228571v7.314286c0 29.257143-21.942857 54.857143-51.2 58.514286-36.571429 3.657143-65.828571 10.971429-80.457143 14.628571-32.914286 10.971429-73.142857 29.257143-124.342857 54.857143 43.885714 91.428571 80.457143 149.942857 106.057143 182.857143 25.6 29.257143 54.857143 54.857143 87.771428 76.8 3.657143 3.657143 7.314286 3.657143 14.628572 7.314285 25.6 10.971429 43.885714 36.571429 43.885714 65.828572 0 21.942857-18.285714 36.571429-36.571429 36.571428-3.657143 0-10.971429 0-14.628571-3.657142-69.485714-25.6-120.685714-54.857143-149.942857-87.771429-32.914286-32.914286-65.828571-80.457143-95.085715-135.314286-7.314286-10.971429-14.628571-32.914286-29.257142-58.514285-3.657143-10.971429-10.971429-21.942857-21.942858-40.228572-14.628571 10.971429-32.914286 18.285714-47.542857 25.6v51.2c0 91.428571-21.942857 157.257143-65.828571 204.8-32.914286 36.571429-80.457143 54.857143-146.285714 58.514286v-95.085714c58.514286-3.657143 91.428571-40.228571 106.057142-113.371429-80.457143 58.514286-153.6 102.4-212.114285 124.342857-54.857143 21.942857-146.285714 47.542857-274.285715 73.142857-21.942857 3.657143-40.228571-10.971429-43.885714-29.257143 18.285714 3.657143 18.285714 0 18.285714 0z m0-724.114285v-7.314286c0-73.142857 36.571429-109.714286 109.714286-109.714286h354.742857v-7.314285c0-29.257143 21.942857-51.2 51.2-51.2 29.257143 0 51.2 21.942857 51.2 51.2v7.314285h336.457143c43.885714 0 76.8 7.314286 95.085714 25.6 21.942857 18.285714 32.914286 47.542857 32.914286 84.114286v7.314286c0 29.257143-21.942857 51.2-51.2 51.2-25.6 0-51.2-18.285714-54.857143-43.885715 0-7.314286-3.657143-10.971429-3.657143-10.971428-7.314286-7.314286-18.285714-10.971429-32.914285-10.971429H1342.171429c-18.285714 0-29.257143 3.657143-36.571429 10.971429-3.657143 3.657143-3.657143 7.314286-7.314286 14.628571-7.314286 25.6-29.257143 43.885714-54.857143 43.885715-25.6-3.657143-51.2-25.6-51.2-54.857143z m1451.885715 329.142857c0-29.257143 21.942857-51.2 51.2-51.2h248.685714v-76.8h-146.285714c-47.542857 0-80.457143-7.314286-98.742857-21.942857-18.285714-14.628571-29.257143-32.914286-36.571429-54.857143-3.657143-10.971429-3.657143-58.514286-3.657143-135.314286 0-58.514286 3.657143-95.085714 14.628572-113.371428 10.971429-18.285714 25.6-29.257143 36.571428-36.571429 18.285714-7.314286 51.2-10.971429 102.4-10.971429H3181.714286c47.542857 0 80.457143 7.314286 98.742857 18.285715 14.628571 10.971429 25.6 21.942857 32.914286 36.571428 7.314286 18.285714 10.971429 54.857143 10.971428 117.028572 0 69.485714 0 113.371429-3.657143 124.342857-7.314286 25.6-18.285714 43.885714-36.571428 54.857143-21.942857 14.628571-43.885714 21.942857-69.485715 21.942857h-171.885714v76.8h256c29.257143 0 51.2 21.942857 51.2 51.2 0 29.257143-21.942857 51.2-51.2 51.2h-256v343.771428c0 29.257143-21.942857 51.2-51.2 51.2s-51.2-21.942857-51.2-51.2v-343.771428h-248.685714c-21.942857 0-47.542857-21.942857-47.542857-51.2z m168.228571-230.4h358.4c18.285714 0 32.914286-3.657143 40.228572-7.314286 10.971429-3.657143 14.628571-14.628571 14.628571-29.257143V204.8c0-21.942857-3.657143-36.571429-7.314286-40.228571-7.314286-7.314286-21.942857-10.971429-51.2-10.971429h-336.457143c-32.914286 0-51.2 3.657143-54.857142 7.314286-7.314286 7.314286-10.971429 21.942857-10.971429 43.885714V256c0 25.6 3.657143 40.228571 7.314286 43.885714 10.971429 7.314286 21.942857 10.971429 40.228571 10.971429z m1316.571429 457.142857h-168.228572c-29.257143 0-54.857143-10.971429-76.8-36.571429-18.285714-18.285714-25.6-51.2-25.6-91.428571v-120.685714c0-32.914286 10.971429-58.514286 32.914286-80.457143 21.942857-18.285714 43.885714-29.257143 69.485714-29.257143h442.514286c29.257143 0 54.857143 10.971429 76.8 32.914286 18.285714 18.285714 25.6 40.228571 25.6 65.828571v142.628572c0 76.8-40.228571 113.371429-120.685714 113.371428h-149.942857v43.885714h226.742857c25.6 0 43.885714 21.942857 43.885714 43.885715 0 25.6-21.942857 43.885714-43.885714 43.885714h-226.742857v29.257143c0 29.257143-21.942857 51.2-51.2 51.2s-51.2-21.942857-51.2-51.2v-29.257143h-226.742858c-25.6 0-43.885714-21.942857-43.885714-43.885714 0-25.6 21.942857-43.885714 43.885714-43.885715h226.742858V768z m270.628571-142.628571h-435.2v7.314285c0 25.6 10.971429 40.228571 36.571429 40.228572h362.057143c25.6 0 40.228571-10.971429 40.228571-36.571429v-10.971428z m-438.857143-84.114286h435.2v-7.314286c0-21.942857-14.628571-32.914286-40.228571-32.914286h-358.4c-25.6 0-36.571429 10.971429-36.571429 29.257143v10.971429zM3474.285714 928.914286V142.628571c0-32.914286 7.314286-58.514286 25.6-76.8s40.228571-25.6 62.171429-25.6h142.628571c32.914286 0 58.514286 7.314286 76.8 25.6 18.285714 18.285714 25.6 40.228571 25.6 58.514286V402.285714c0 25.6-7.314286 47.542857-25.6 65.828572 14.628571 7.314286 21.942857 18.285714 25.6 29.257143 0 7.314286 3.657143 18.285714 3.657143 29.257142v292.571429c0 29.257143-7.314286 51.2-25.6 69.485714-18.285714 18.285714-36.571429 25.6-62.171428 25.6h-25.6c-29.257143 0-51.2-21.942857-51.2-51.2V841.142857c0-14.628571 10.971429-29.257143 29.257142-29.257143 21.942857 0 32.914286-10.971429 32.914286-32.914285v-223.085715c0-21.942857-10.971429-36.571429-29.257143-36.571428-21.942857 0-43.885714-18.285714-43.885714-43.885715v-21.942857c0-21.942857 18.285714-40.228571 40.228571-40.228571 21.942857 0 32.914286-10.971429 32.914286-29.257143V171.885714c0-21.942857-10.971429-32.914286-36.571428-32.914285h-58.514286c-21.942857 0-32.914286 10.971429-32.914286 32.914285v753.371429c0 29.257143-21.942857 51.2-51.2 51.2s-54.857143-18.285714-54.857143-47.542857z m384-610.742857c0-25.6 21.942857-47.542857 47.542857-47.542858h25.6v-10.971428c0-29.257143 21.942857-51.2 51.2-51.2s51.2 21.942857 51.2 51.2v10.971428h296.228572V256c0-29.257143 21.942857-51.2 51.2-51.2s51.2 21.942857 51.2 51.2v10.971429h25.6c25.6 0 47.542857 21.942857 47.542857 47.542857 0 25.6-21.942857 47.542857-47.542857 47.542857h-552.228572c-25.6 3.657143-47.542857-18.285714-47.542857-43.885714z m0-197.485715c0-25.6 21.942857-47.542857 47.542857-47.542857h223.085715c0-18.285714 14.628571-32.914286 32.914285-32.914286h36.571429c18.285714 0 32.914286 14.628571 32.914286 32.914286h223.085714c25.6 0 47.542857 21.942857 47.542857 47.542857 0 25.6-21.942857 47.542857-47.542857 47.542857h-552.228571c-21.942857 3.657143-43.885714-18.285714-43.885715-47.542857z m3338.971429 749.714286c21.942857 7.314286 36.571429 21.942857 36.571428 54.857143 0 29.257143-18.285714 73.142857-36.571428 65.828571-7.314286-3.657143-10.971429-7.314286-14.628572-7.314285-43.885714-21.942857-80.457143-47.542857-106.057142-69.485715-25.6-21.942857-54.857143-51.2-84.114286-84.114285-43.885714 58.514286-102.4 106.057143-186.514286 149.942857-3.657143 0-3.657143 3.657143-7.314286 3.657143-21.942857 10.971429-43.885714-18.285714-43.885714-47.542858s21.942857-58.514286 40.228572-69.485714c47.542857-29.257143 76.8-54.857143 102.4-87.771428 29.257143-40.228571 40.228571-87.771429 40.228571-146.285715V310.857143c0-29.257143 21.942857-54.857143 51.2-54.857143 29.257143 0 54.857143 25.6 54.857143 54.857143v321.828571c0 69.485714 18.285714 124.342857 58.514286 168.228572 21.942857 21.942857 51.2 43.885714 95.085714 69.485714z m40.228571-552.228571c-21.942857 3.657143-29.257143-25.6-29.257143-54.857143s7.314286-62.171429 29.257143-87.771429c14.628571-14.628571 29.257143-43.885714 43.885715-87.771428 7.314286-29.257143 36.571429-47.542857 65.828571-47.542858 21.942857 0 40.228571 18.285714 40.228571 40.228572v10.971428l-7.314285 21.942858h270.628571c43.885714 0 76.8 14.628571 106.057143 40.228571 25.6 25.6 40.228571 62.171429 40.228571 109.714286v544.914285c0 117.028571-47.542857 175.542857-142.628571 175.542858h-80.457143c-29.257143 0-51.2-21.942857-51.2-51.2s21.942857-51.2 51.2-51.2h54.857143c25.6 0 43.885714-3.657143 51.2-14.628572 10.971429-14.628571 18.285714-32.914286 18.285714-58.514286V288.914286c0-47.542857-21.942857-69.485714-62.171428-69.485715h-288.914286c-18.285714 29.257143-36.571429 51.2-51.2 65.828572-21.942857 7.314286-36.571429 18.285714-58.514286 32.914286z m-555.885714 563.2c21.942857 0 36.571429 21.942857 36.571429 51.2s-14.628571 47.542857-36.571429 47.542857c-40.228571-3.657143-73.142857-14.628571-91.428571-29.257143-36.571429-29.257143-58.514286-91.428571-62.171429-179.2l-21.942857-658.285714c0-25.6 18.285714-51.2 47.542857-51.2s51.2 21.942857 51.2 51.2l21.942857 647.314285c0 47.542857 7.314286 80.457143 21.942857 98.742857 10.971429 14.628571 21.942857 18.285714 32.914286 21.942858z m-288.914286-182.857143c21.942857 0 36.571429 21.942857 36.571429 51.2 0 29.257143-14.628571 51.2-36.571429 51.2-47.542857 0-87.771429-18.285714-120.685714-51.2-32.914286-29.257143-51.2-73.142857-54.857143-124.342857l-43.885714-537.6c-3.657143-25.6 18.285714-47.542857 43.885714-51.2h3.657143c29.257143 0 51.2 21.942857 54.857143 51.2l43.885714 541.257142c3.657143 47.542857 29.257143 69.485714 73.142857 69.485715z m-830.171428 175.542857c3.657143 0 3.657143 0 0 0h3.657143c18.285714 10.971429 36.571429 21.942857 36.571428 51.2 0 29.257143-14.628571 51.2-36.571428 51.2h-3.657143c-62.171429-25.6-109.714286-47.542857-142.628572-69.485714-21.942857-18.285714-47.542857-40.228571-76.8-65.828572-43.885714 40.228571-80.457143 65.828571-117.028571 87.771429-32.914286 18.285714-58.514286 29.257143-98.742857 43.885714-21.942857 0-36.571429-21.942857-36.571429-51.2 0-29.257143 18.285714-40.228571 36.571429-51.2 58.514286-25.6 98.742857-58.514286 149.942857-109.714286-40.228571-73.142857-69.485714-135.314286-84.114286-186.514285-18.285714-51.2-32.914286-124.342857-47.542857-219.428572h98.742857c14.628571 76.8 25.6 138.971429 40.228572 190.171429 10.971429 47.542857 32.914286 91.428571 54.857142 135.314285 29.257143-62.171429 51.2-124.342857 62.171429-190.171428 7.314286-40.228571 14.628571-131.657143 21.942857-277.942857h-186.514286c-14.628571 43.885714-36.571429 80.457143-58.514285 102.4-18.285714 18.285714-51.2 32.914286-98.742857 47.542857-18.285714-3.657143-29.257143-25.6-29.257143-54.857143 0-25.6 10.971429-40.228571 29.257143-47.542857 3.657143 0 3.657143-3.657143 7.314285-3.657143 18.285714-10.971429 29.257143-18.285714 32.914286-25.6 7.314286-10.971429 21.942857-58.514286 43.885714-138.971429 7.314286-29.257143 32.914286-47.542857 65.828572-47.542857 21.942857 0 40.228571 18.285714 40.228571 40.228572V95.085714l-3.657143 14.628572h256c29.257143 0 51.2 21.942857 51.2 51.2v7.314285c0 25.6-21.942857 43.885714-43.885714 43.885715-3.657143 113.371429-10.971429 204.8-21.942857 277.942857-7.314286 58.514286-18.285714 109.714286-32.914286 149.942857-10.971429 32.914286-32.914286 76.8-62.171428 135.314286 40.228571 40.228571 91.428571 76.8 149.942857 98.742857zM4571.428571 980.114286c-21.942857 0-36.571429-18.285714-36.571428-51.2 0-29.257143 18.285714-43.885714 36.571428-51.2 21.942857-18.285714 36.571429-40.228571 43.885715-58.514286 21.942857-51.2 32.914286-138.971429 40.228571-259.657143l18.285714-351.085714h-51.2c-29.257143 0-51.2-21.942857-51.2-51.2s21.942857-51.2 51.2-51.2h153.6v-14.628572c0-29.257143 21.942857-51.2 51.2-51.2s51.2 21.942857 51.2 51.2v14.628572h153.6c29.257143 0 51.2 21.942857 51.2 51.2s-21.942857 51.2-51.2 51.2h-256l-10.971428 171.885714h204.8c29.257143 0 47.542857 3.657143 58.514286 7.314286 36.571429 18.285714 51.2 47.542857 51.2 91.428571v402.285715c0 29.257143-7.314286 54.857143-25.6 73.142857-18.285714 21.942857-43.885714 32.914286-80.457143 32.914285h-58.514286c-29.257143 0-51.2-21.942857-51.2-51.2s21.942857-51.2 51.2-51.2h25.6c25.6 0 36.571429-10.971429 36.571429-36.571428v-329.142857c0-10.971429-3.657143-18.285714-10.971429-25.6-7.314286-7.314286-14.628571-10.971429-25.6-10.971429H4754.285714c-7.314286 157.257143-18.285714 266.971429-36.571428 332.8-21.942857 95.085714-73.142857 149.942857-146.285715 164.571429z m1115.428572 0c-18.285714 0-32.914286-18.285714-32.914286-47.542857s14.628571-43.885714 32.914286-51.2c18.285714-3.657143 29.257143-14.628571 36.571428-25.6 10.971429-14.628571 10.971429-36.571429 10.971429-65.828572l21.942857-672.914286c0-29.257143 25.6-51.2 51.2-51.2s47.542857 21.942857 47.542857 47.542858l-25.6 665.6c0 135.314286-47.542857 201.142857-142.628571 201.142857z m314.514286-936.228572c29.257143 0 51.2 21.942857 51.2 51.2v720.457143c0 43.885714 21.942857 65.828571 62.171428 65.828572h292.571429c29.257143 0 51.2 21.942857 51.2 51.2s-21.942857 51.2-51.2 51.2h-310.857143c-47.542857 0-84.114286-18.285714-113.371429-51.2-21.942857-25.6-29.257143-58.514286-29.257143-102.4V95.085714c-3.657143-29.257143 18.285714-51.2 47.542858-51.2z m1404.342857 292.571429c21.942857 0 36.571429 18.285714 36.571428 36.571428 0 3.657143 0 7.314286-3.657143 10.971429l-76.8 230.4c-7.314286 18.285714-10.971429 32.914286-10.971428 40.228571 0 14.628571 10.971429 21.942857 32.914286 21.942858h106.057142c29.257143 0 43.885714-10.971429 43.885715-32.914286 0-7.314286 0-18.285714-3.657143-32.914286l-14.628572-87.771428c-3.657143-21.942857 10.971429-40.228571 29.257143-43.885715h7.314286c25.6 0 47.542857 18.285714 51.2 43.885715l14.628571 84.114285c3.657143 18.285714 3.657143 36.571429 3.657143 54.857143 0 40.228571-10.971429 69.485714-32.914285 91.428572-14.628571 14.628571-32.914286 21.942857-54.857143 21.942857h-182.857143c-32.914286 0-58.514286-10.971429-76.8-29.257143s-25.6-40.228571-25.6-65.828572c0-21.942857 3.657143-47.542857 14.628571-76.8l73.142857-215.771428c10.971429-32.914286 36.571429-51.2 69.485715-51.2z m-610.742857 354.742857V157.257143c0-76.8 32.914286-113.371429 98.742857-113.371429h190.171428c69.485714 0 106.057143 36.571429 106.057143 106.057143v541.257143c0 29.257143-21.942857 51.2-51.2 51.2-29.257143 0-51.2-21.942857-51.2-51.2V182.857143c0-21.942857-10.971429-32.914286-32.914286-32.914286h-124.342857c-14.628571 0-25.6 3.657143-29.257143 10.971429-3.657143 3.657143-7.314286 14.628571-7.314285 29.257143V694.857143c0 29.257143-21.942857 51.2-51.2 51.2-25.6-7.314286-47.542857-29.257143-47.542857-54.857143z" fill="#FF442E" p-id="3735" data-spm-anchor-id="a313x.7781069.0.i2" class="selected"></path><path d="M7200.914286 994.742857c-3.657143 0-7.314286 0-7.314286-3.657143-7.314286-3.657143-10.971429-7.314286-14.628571-10.971428-43.885714-21.942857-80.457143-47.542857-106.057143-69.485715-25.6-18.285714-51.2-47.542857-80.457143-76.8-43.885714 54.857143-98.742857 98.742857-182.857143 142.628572-3.657143 0-3.657143 3.657143-7.314286 3.657143-10.971429 3.657143-21.942857 3.657143-29.257143 0-14.628571-10.971429-25.6-29.257143-25.6-54.857143 0-29.257143 21.942857-58.514286 40.228572-73.142857l3.657143-3.657143c47.542857-29.257143 76.8-54.857143 98.742857-84.114286 25.6-36.571429 40.228571-84.114286 40.228571-142.628571V299.885714c0-32.914286 29.257143-62.171429 62.171429-62.171428 32.914286 0 62.171429 29.257143 62.171428 62.171428V621.714286c0 65.828571 18.285714 120.685714 58.514286 164.571428 21.942857 21.942857 51.2 47.542857 91.428572 69.485715 25.6 10.971429 40.228571 29.257143 40.228571 62.171428 0 25.6-10.971429 58.514286-29.257143 69.485714-7.314286 7.314286-10.971429 7.314286-14.628571 7.314286z m-212.114286-182.857143l7.314286 7.314286c29.257143 32.914286 58.514286 62.171429 84.114285 84.114286 25.6 21.942857 62.171429 43.885714 106.057143 65.828571 3.657143 3.657143 10.971429 7.314286 14.628572 7.314286h3.657143c10.971429-7.314286 21.942857-32.914286 21.942857-54.857143s-7.314286-36.571429-29.257143-43.885714l-7.314286-3.657143c-40.228571-21.942857-69.485714-47.542857-91.428571-69.485714-40.228571-43.885714-62.171429-106.057143-62.171429-175.542858V307.2c0-25.6-18.285714-43.885714-43.885714-43.885714s-43.885714 18.285714-43.885714 43.885714v321.828571c0 58.514286-14.628571 109.714286-43.885715 149.942858-21.942857 32.914286-51.2 58.514286-98.742857 87.771428l-3.657143 3.657143c-18.285714 10.971429-36.571429 36.571429-36.571428 62.171429 0 18.285714 7.314286 32.914286 14.628571 40.228571 3.657143 3.657143 7.314286 3.657143 14.628572 0 3.657143 0 3.657143-3.657143 7.314285-3.657143 84.114286-43.885714 138.971429-87.771429 182.857143-146.285714l3.657143-10.971429z m-3635.2 182.857143c-7.314286 0-18.285714 0-25.6-3.657143-18.285714-7.314286-40.228571-18.285714-58.514286-29.257143-54.857143-36.571429-91.428571-98.742857-117.028571-179.2-3.657143-14.628571-10.971429-43.885714-18.285714-84.114285-3.657143-29.257143 14.628571-58.514286 43.885714-62.171429 40.228571-7.314286 73.142857 21.942857 80.457143 58.514286 7.314286 36.571429 14.628571 62.171429 18.285714 73.142857 10.971429 36.571429 29.257143 62.171429 47.542857 80.457143 7.314286 7.314286 18.285714 14.628571 32.914286 25.6 29.257143 14.628571 54.857143 51.2 47.542857 84.114286-3.657143 14.628571-14.628571 25.6-29.257143 32.914285-3.657143 3.657143-10.971429 3.657143-21.942857 3.657143z m-160.914286-343.771428h-7.314285c-18.285714 3.657143-32.914286 21.942857-29.257143 40.228571 7.314286 40.228571 14.628571 69.485714 18.285714 84.114286 21.942857 76.8 58.514286 135.314286 109.714286 168.228571 14.628571 10.971429 36.571429 21.942857 54.857143 25.6 10.971429 3.657143 25.6 7.314286 32.914285 0 7.314286-3.657143 14.628571-10.971429 18.285715-21.942857 7.314286-21.942857-14.628571-51.2-36.571429-62.171429l-3.657143-3.657142c-14.628571-10.971429-21.942857-18.285714-29.257143-25.6-21.942857-21.942857-36.571429-51.2-51.2-87.771429-3.657143-10.971429-10.971429-36.571429-18.285714-76.8-10.971429-21.942857-32.914286-40.228571-58.514286-40.228571zM2998.857143 994.742857c-32.914286 0-62.171429-25.6-62.171429-62.171428v-332.8h-241.371428c-32.914286 0-62.171429-25.6-62.171429-62.171429s25.6-62.171429 62.171429-62.171429h241.371428v-58.514285h-135.314285c-47.542857 0-84.114286-7.314286-102.4-21.942857-18.285714-14.628571-32.914286-36.571429-40.228572-62.171429-3.657143-7.314286-3.657143-32.914286-3.657143-135.314286 0-62.171429 7.314286-98.742857 18.285715-117.028571s25.6-32.914286 40.228571-40.228572c18.285714-7.314286 51.2-14.628571 106.057143-14.628571h369.371428c51.2 0 84.114286 7.314286 102.4 18.285714s29.257143 25.6 36.571429 40.228572c10.971429 18.285714 14.628571 58.514286 14.628571 120.685714 0 73.142857 0 113.371429-3.657142 128-7.314286 25.6-21.942857 47.542857-40.228572 62.171429-21.942857 14.628571-47.542857 21.942857-76.8 21.942857h-160.914286V475.428571h248.685715c32.914286 0 62.171429 25.6 62.171428 62.171429s-25.6 62.171429-62.171428 62.171429h-248.685715v332.8c0 36.571429-29.257143 62.171429-62.171428 62.171428z m-299.885714-497.371428c-21.942857 0-43.885714 18.285714-43.885715 43.885714 0 21.942857 18.285714 43.885714 43.885715 43.885714h259.657142v351.085714c0 21.942857 18.285714 43.885714 43.885715 43.885715s43.885714-18.285714 43.885714-43.885715V585.142857h266.971429c21.942857 0 43.885714-18.285714 43.885714-43.885714 0-21.942857-18.285714-43.885714-43.885714-43.885714h-266.971429V402.285714h179.2c25.6 0 47.542857-7.314286 65.828571-21.942857 14.628571-10.971429 25.6-25.6 32.914286-51.2 3.657143-7.314286 3.657143-36.571429 3.657143-124.342857 0-73.142857-7.314286-102.4-10.971429-113.371429-7.314286-10.971429-18.285714-21.942857-29.257142-32.914285-14.628571-10.971429-47.542857-14.628571-95.085715-14.628572H2823.314286c-47.542857 0-80.457143 3.657143-98.742857 10.971429-14.628571 7.314286-25.6 18.285714-32.914286 32.914286-7.314286 10.971429-14.628571 36.571429-14.628572 106.057142 0 95.085714 3.657143 124.342857 3.657143 131.657143 3.657143 21.942857 14.628571 40.228571 32.914286 51.2 18.285714 14.628571 47.542857 18.285714 91.428571 18.285715h153.6v95.085714h-259.657142zM1093.485714 994.742857h-10.971428-7.314286c-65.828571-3.657143-106.057143-7.314286-128-10.971428-76.8-14.628571-142.628571-54.857143-201.142857-120.685715-14.628571-14.628571-29.257143-36.571429-47.542857-54.857143-7.314286-7.314286-10.971429-18.285714-10.971429-29.257142 0-10.971429 7.314286-21.942857 14.628572-29.257143 7.314286-7.314286 18.285714-10.971429 25.6-10.971429h36.571428c21.942857 0 43.885714 10.971429 62.171429 25.6 29.257143 32.914286 54.857143 54.857143 69.485714 65.828572 40.228571 25.6 95.085714 40.228571 157.257143 40.228571H1082.514286c14.628571 0 29.257143 3.657143 40.228571 14.628571 10.971429 10.971429 18.285714 29.257143 18.285714 43.885715 0 32.914286-21.942857 54.857143-47.542857 65.828571zM731.428571 753.371429c-3.657143 0-10.971429 3.657143-14.628571 3.657142-10.971429 7.314286-10.971429 21.942857-3.657143 32.914286 18.285714 21.942857 32.914286 40.228571 47.542857 54.857143 54.857143 62.171429 120.685714 98.742857 190.171429 113.371429 18.285714 3.657143 58.514286 7.314286 124.342857 10.971428h7.314286c21.942857-3.657143 40.228571-21.942857 40.228571-43.885714 0-14.628571-3.657143-25.6-10.971428-32.914286-7.314286-7.314286-14.628571-10.971429-21.942858-10.971428H1060.571429c-65.828571 0-120.685714-14.628571-164.571429-43.885715-18.285714-10.971429-43.885714-32.914286-73.142857-69.485714-10.971429-14.628571-29.257143-21.942857-47.542857-21.942857H731.428571z m6915.657143 241.371428h-80.457143c-32.914286 0-58.514286-25.6-58.514285-58.514286 0-32.914286 25.6-58.514286 58.514285-58.514285h54.857143c21.942857 0 36.571429-3.657143 43.885715-10.971429 10.971429-10.971429 14.628571-29.257143 14.628571-54.857143V288.914286c0-21.942857-3.657143-36.571429-14.628571-47.542857-7.314286-7.314286-21.942857-14.628571-40.228572-14.628572h-281.6c-18.285714 25.6-32.914286 47.542857-47.542857 62.171429-10.971429 14.628571-29.257143 25.6-51.2 36.571428l-3.657143 3.657143-10.971428 7.314286V329.142857c-3.657143 0-7.314286-3.657143-10.971429-7.314286-10.971429-10.971429-18.285714-32.914286-18.285714-58.514285 0-36.571429 10.971429-69.485714 29.257143-91.428572l3.657142-3.657143c14.628571-10.971429 25.6-40.228571 40.228572-84.114285 10.971429-32.914286 40.228571-54.857143 73.142857-54.857143 25.6 0 47.542857 21.942857 47.542857 47.542857v10.971429l-3.657143 10.971428h256c43.885714 0 84.114286 14.628571 113.371429 43.885714 29.257143 29.257143 43.885714 65.828571 43.885714 113.371429v544.914286c-7.314286 128-58.514286 193.828571-157.257143 193.828571z m-84.114285-102.4c-21.942857 0-40.228571 18.285714-40.228572 40.228572s18.285714 40.228571 40.228572 40.228571h80.457142c91.428571 0 135.314286-54.857143 135.314286-168.228571V263.314286c0-43.885714-10.971429-76.8-36.571428-102.4-25.6-25.6-58.514286-36.571429-98.742858-36.571429h-281.6l7.314286-36.571428v-7.314286c0-18.285714-14.628571-29.257143-29.257143-29.257143-25.6 0-47.542857 18.285714-54.857143 40.228571-14.628571 43.885714-29.257143 73.142857-43.885714 87.771429l-3.657143 3.657143c-25.6 25.6-25.6 69.485714-25.6 80.457143 0 18.285714 3.657143 36.571429 10.971429 43.885714 3.657143 3.657143 3.657143 3.657143 7.314286 3.657143 18.285714-10.971429 36.571429-21.942857 47.542857-32.914286 14.628571-14.628571 29.257143-36.571429 47.542857-62.171428l3.657143-3.657143h292.571428c21.942857 0 40.228571 7.314286 54.857143 18.285714 14.628571 14.628571 18.285714 32.914286 18.285714 62.171429v519.314285c0 29.257143-7.314286 51.2-21.942857 65.828572-10.971429 10.971429-29.257143 18.285714-58.514285 18.285714h-51.2z m-2998.857143 102.4c-21.942857-7.314286-36.571429-32.914286-36.571429-62.171428 0-32.914286 18.285714-51.2 40.228572-62.171429 18.285714-18.285714 32.914286-36.571429 40.228571-54.857143 21.942857-51.2 32.914286-135.314286 40.228571-256l18.285715-340.114286h-43.885715c-32.914286 0-62.171429-25.6-62.171428-62.171428 0-32.914286 25.6-62.171429 62.171428-62.171429h146.285715v-3.657143c0-32.914286 25.6-58.514286 58.514285-58.514285s58.514286 25.6 58.514286 58.514285v3.657143h146.285714c32.914286 0 62.171429 25.6 62.171429 62.171429 0 32.914286-25.6 62.171429-62.171429 62.171428h-248.685714l-10.971428 153.6h193.828571c29.257143 0 51.2 3.657143 65.828571 10.971429 36.571429 18.285714 58.514286 51.2 58.514286 98.742857v409.6c7.314286-10.971429 18.285714-18.285714 25.6-21.942857l7.314286-3.657143c51.2-21.942857 91.428571-51.2 142.628571-102.4-40.228571-69.485714-65.828571-131.657143-84.114285-182.857143-18.285714-51.2-32.914286-128-51.2-219.428571v-7.314286c-14.628571 7.314286-32.914286 14.628571-54.857143 18.285714h-7.314286c-21.942857-3.657143-36.571429-29.257143-36.571429-62.171428 0-32.914286 18.285714-47.542857 32.914286-54.857143 3.657143-3.657143 7.314286-3.657143 7.314286-3.657143 21.942857-10.971429 29.257143-18.285714 29.257143-21.942857 3.657143-7.314286 18.285714-36.571429 43.885714-138.971429 10.971429-32.914286 40.228571-54.857143 73.142857-54.857142 29.257143 0 51.2 21.942857 51.2 51.2v18.285714h245.028572c32.914286 0 62.171429 25.6 62.171428 62.171428v7.314286c0 25.6-18.285714 51.2-47.542857 54.857143-3.657143 109.714286-10.971429 197.485714-21.942857 270.628571-7.314286 58.514286-18.285714 109.714286-32.914286 153.6-10.971429 32.914286-29.257143 76.8-58.514286 128 43.885714 43.885714 95.085714 73.142857 149.942858 95.085715 0 0 3.657143 0 3.657142 3.657143l7.314286 3.657142c18.285714 10.971429 36.571429 25.6 36.571429 58.514286 0 36.571429-18.285714 62.171429-43.885715 62.171429h-7.314285-3.657143c-62.171429-25.6-109.714286-47.542857-142.628572-73.142857-21.942857-14.628571-43.885714-36.571429-69.485714-58.514286-40.228571 36.571429-76.8 62.171429-113.371428 84.114286-32.914286 18.285714-58.514286 29.257143-102.4 43.885714l-10.971429-14.628572v-3.657142c-18.285714-3.657143-32.914286-25.6-36.571429-51.2-3.657143 10.971429-10.971429 18.285714-18.285714 29.257142-18.285714 21.942857-47.542857 32.914286-87.771428 32.914286h-58.514286c-32.914286 0-62.171429-29.257143-62.171429-62.171428s29.257143-62.171429 62.171429-62.171429h25.6c18.285714 0 25.6-7.314286 25.6-25.6v-329.142857c0-7.314286-3.657143-14.628571-7.314286-18.285714-3.657143-3.657143-10.971429-7.314286-18.285714-7.314286h-179.2c-7.314286 149.942857-18.285714 259.657143-36.571429 325.485714-29.257143 102.4-80.457143 160.914286-157.257143 175.542857l-7.314285 3.657143z m358.4-106.057143c-21.942857 0-43.885714 18.285714-43.885715 43.885715 0 21.942857 18.285714 43.885714 43.885715 43.885714h58.514285c32.914286 0 54.857143-10.971429 73.142858-29.257143 14.628571-14.628571 21.942857-40.228571 21.942857-65.828571V475.428571c0-40.228571-14.628571-65.828571-47.542857-80.457142-10.971429-3.657143-29.257143-7.314286-54.857143-7.314286h-215.771429l10.971429-190.171429h263.314285c21.942857 0 43.885714-18.285714 43.885715-43.885714 0-21.942857-18.285714-43.885714-43.885715-43.885714h-164.571428v-21.942857c0-21.942857-18.285714-40.228571-40.228572-40.228572s-40.228571 18.285714-40.228571 40.228572V109.714286h-164.571429c-21.942857 0-43.885714 18.285714-43.885714 43.885714 0 21.942857 18.285714 43.885714 43.885714 43.885714h62.171429l-18.285714 358.4c-7.314286 124.342857-18.285714 212.114286-40.228572 263.314286-7.314286 21.942857-25.6 43.885714-47.542857 62.171429h-3.657143c-21.942857 10.971429-32.914286 21.942857-32.914285 43.885714s10.971429 40.228571 25.6 40.228571c69.485714-14.628571 117.028571-69.485714 142.628571-164.571428 18.285714-62.171429 29.257143-175.542857 36.571429-329.142857v-7.314286h197.485714c10.971429 0 21.942857 3.657143 29.257143 10.971428 7.314286 7.314286 14.628571 18.285714 14.628571 32.914286v329.142857c0 29.257143-14.628571 43.885714-43.885714 43.885715h-21.942857z m424.228571-58.514285l7.314286 7.314285c25.6 25.6 51.2 47.542857 76.8 65.828572 32.914286 21.942857 76.8 47.542857 138.971428 69.485714h3.657143c14.628571 0 25.6-18.285714 25.6-43.885714 0-21.942857-10.971429-32.914286-32.914285-43.885715h-3.657143c-58.514286-21.942857-113.371429-58.514286-160.914286-106.057142l-3.657143-3.657143 3.657143-7.314286c29.257143-54.857143 51.2-98.742857 62.171429-131.657143 14.628571-40.228571 25.6-91.428571 32.914285-149.942857 10.971429-73.142857 18.285714-164.571429 21.942857-277.942857v-7.314286h7.314286c18.285714 0 36.571429-14.628571 36.571429-36.571428v-7.314286c0-21.942857-18.285714-43.885714-43.885715-43.885714h-266.971428l7.314286-29.257143v-7.314286c0-18.285714-14.628571-32.914286-32.914286-32.914286-25.6 0-47.542857 18.285714-54.857143 43.885715-29.257143 109.714286-40.228571 135.314286-47.542857 142.628571-3.657143 7.314286-18.285714 18.285714-36.571429 29.257143-3.657143 0-3.657143 3.657143-7.314285 3.657143-10.971429 7.314286-25.6 18.285714-25.6 40.228571 0 21.942857 7.314286 40.228571 18.285714 43.885714 47.542857-14.628571 80.457143-29.257143 95.085714-43.885714 21.942857-21.942857 40.228571-54.857143 58.514286-98.742857l3.657143-7.314286h201.142857v10.971429c-7.314286 149.942857-14.628571 241.371429-21.942857 277.942857-10.971429 65.828571-32.914286 131.657143-62.171429 193.828571l-7.314286 14.628572-7.314285-14.628572c-25.6-47.542857-43.885714-91.428571-54.857143-138.971428-14.628571-47.542857-25.6-109.714286-40.228572-182.857143H5156.571429c14.628571 87.771429 32.914286 157.257143 47.542857 208.457143 14.628571 51.2 43.885714 113.371429 84.114285 186.514286l3.657143 7.314285-3.657143 3.657143c-54.857143 54.857143-95.085714 87.771429-149.942857 109.714286h-3.657143c-18.285714 7.314286-32.914286 18.285714-32.914285 43.885714s10.971429 43.885714 25.6 43.885714l7.314285-3.657142c36.571429-14.628571 58.514286-21.942857 91.428572-40.228572 32.914286-18.285714 73.142857-47.542857 113.371428-84.114286l7.314286-3.657142z m-201.142857-486.4h106.057143v7.314285c14.628571 76.8 25.6 138.971429 40.228571 186.514286 10.971429 40.228571 25.6 80.457143 47.542857 120.685714 25.6-54.857143 43.885714-113.371429 54.857143-171.885714 7.314286-36.571429 10.971429-128 18.285715-266.971429h-168.228572c-14.628571 43.885714-36.571429 76.8-58.514286 98.742858-10.971429 7.314286-25.6 14.628571-40.228571 25.6zM1609.142857 991.085714V877.714286h7.314286c47.542857-3.657143 76.8-29.257143 91.428571-80.457143-73.142857 51.2-138.971429 87.771429-193.828571 113.371428-54.857143 21.942857-146.285714 47.542857-277.942857 73.142858-25.6 3.657143-51.2-10.971429-54.857143-36.571429v-7.314286c0-32.914286 21.942857-58.514286 51.2-62.171428 73.142857-14.628571 102.4-18.285714 109.714286-21.942857 109.714286-29.257143 234.057143-95.085714 365.714285-197.485715-3.657143-10.971429-3.657143-21.942857-7.314285-32.914285-102.4 69.485714-259.657143 135.314286-464.457143 193.828571-10.971429 3.657143-21.942857 0-32.914286-3.657143-10.971429-7.314286-18.285714-14.628571-21.942857-25.6v-10.971428c0-29.257143 21.942857-58.514286 51.2-65.828572 47.542857-10.971429 76.8-18.285714 95.085714-21.942857 62.171429-18.285714 138.971429-54.857143 223.085714-98.742857 32.914286-18.285714 69.485714-40.228571 102.4-65.828572-3.657143-7.314286-7.314286-10.971429-14.628571-14.628571-76.8 36.571429-146.285714 65.828571-201.142857 87.771429-40.228571 14.628571-109.714286 32.914286-197.485714 47.542857-25.6 3.657143-51.2-10.971429-58.514286-40.228572v-7.314285c0-32.914286 21.942857-58.514286 51.2-65.828572 65.828571-14.628571 113.371429-25.6 142.628571-36.571428 62.171429-18.285714 131.657143-47.542857 204.8-87.771429h-325.485714c-32.914286 0-58.514286-25.6-58.514286-58.514286S1221.485714 292.571429 1254.4 292.571429h906.971429c32.914286 0 58.514286 25.6 58.514285 58.514285S2194.285714 402.285714 2161.371429 402.285714h-351.085715l-58.514285 36.571429c25.6 32.914286 40.228571 69.485714 54.857142 106.057143 124.342857-58.514286 204.8-91.428571 237.714286-102.4 29.257143-10.971429 69.485714-18.285714 124.342857-25.6 14.628571-3.657143 29.257143 0 40.228572 10.971428 10.971429 7.314286 18.285714 21.942857 21.942857 36.571429v7.314286c0 32.914286-25.6 62.171429-58.514286 65.828571-36.571429 3.657143-62.171429 10.971429-76.8 14.628571-29.257143 10.971429-69.485714 25.6-113.371428 47.542858 40.228571 84.114286 76.8 142.628571 102.4 175.542857 25.6 29.257143 54.857143 54.857143 87.771428 76.8 3.657143 3.657143 7.314286 3.657143 14.628572 7.314285 29.257143 10.971429 51.2 40.228571 51.2 73.142858 0 25.6-21.942857 47.542857-47.542858 47.542857-7.314286 0-10.971429 0-18.285714-3.657143-69.485714-29.257143-120.685714-58.514286-153.6-87.771429-36.571429-32.914286-69.485714-80.457143-98.742857-138.971428-7.314286-10.971429-14.628571-32.914286-29.257143-58.514286-3.657143-7.314286-10.971429-18.285714-14.628571-32.914286-10.971429 7.314286-21.942857 14.628571-36.571429 18.285715v43.885714c0 91.428571-21.942857 164.571429-69.485714 212.114286-36.571429 36.571429-87.771429 58.514286-149.942857 58.514285H1609.142857z m18.285714-95.085714v76.8c54.857143-3.657143 98.742857-21.942857 128-54.857143 43.885714-43.885714 65.828571-109.714286 65.828572-197.485714v-54.857143l3.657143-3.657143c14.628571-7.314286 32.914286-18.285714 47.542857-25.6l7.314286-3.657143 3.657142 7.314286c7.314286 18.285714 14.628571 29.257143 21.942858 40.228571 14.628571 29.257143 21.942857 47.542857 29.257142 58.514286 29.257143 54.857143 58.514286 98.742857 95.085715 131.657143 29.257143 29.257143 80.457143 58.514286 146.285714 84.114286 18.285714 7.314286 36.571429-7.314286 36.571429-25.6 0-25.6-14.628571-47.542857-40.228572-58.514286-7.314286-3.657143-10.971429-3.657143-18.285714-7.314286-32.914286-21.942857-65.828571-51.2-91.428572-80.457143-29.257143-32.914286-65.828571-95.085714-109.714285-186.514285l-3.657143-7.314286 7.314286-3.657143c51.2-25.6 91.428571-43.885714 124.342857-54.857143 18.285714-3.657143 43.885714-10.971429 80.457143-14.628571 25.6-3.657143 43.885714-21.942857 43.885714-47.542857v-3.657143c0-10.971429-7.314286-18.285714-14.628572-25.6-7.314286-7.314286-18.285714-7.314286-25.6-7.314286-51.2 7.314286-91.428571 14.628571-120.685714 25.6-32.914286 10.971429-113.371429 47.542857-245.028571 106.057143l-7.314286 7.314286v-10.971429c-10.971429-40.228571-32.914286-80.457143-58.514286-117.028571l-7.314285-7.314286 80.457142-51.2h354.742858c21.942857 0 40.228571-18.285714 40.228571-40.228571s-18.285714-40.228571-40.228571-40.228572H1254.4c-21.942857 0-40.228571 18.285714-40.228571 40.228572s18.285714 40.228571 40.228571 40.228571h362.057143l3.657143 18.285714c-87.771429 47.542857-168.228571 84.114286-241.371429 106.057143-29.257143 10.971429-80.457143 21.942857-142.628571 36.571429-21.942857 3.657143-40.228571 25.6-36.571429 47.542857v7.314286c3.657143 14.628571 18.285714 25.6 36.571429 25.6 87.771429-18.285714 153.6-32.914286 193.828571-47.542858 58.514286-21.942857 124.342857-51.2 204.8-87.771428l3.657143-3.657143 3.657143 3.657143c10.971429 7.314286 18.285714 18.285714 25.6 32.914286l3.657143 7.314285-7.314286 3.657143c-36.571429 25.6-73.142857 51.2-109.714286 73.142857-84.114286 47.542857-160.914286 80.457143-226.742857 102.4-18.285714 3.657143-47.542857 14.628571-95.085714 25.6-21.942857 3.657143-36.571429 25.6-36.571429 47.542857v7.314286c3.657143 7.314286 7.314286 10.971429 10.971429 14.628572s14.628571 3.657143 18.285714 3.657142c208.457143-58.514286 365.714286-124.342857 468.114286-197.485714l10.971428-7.314286 3.657143 10.971429c7.314286 14.628571 10.971429 32.914286 14.628572 51.2v3.657143l-3.657143 3.657143c-135.314286 106.057143-263.314286 175.542857-376.685714 204.8-14.628571 3.657143-51.2 10.971429-109.714286 21.942857-21.942857 3.657143-36.571429 21.942857-36.571429 43.885714v3.657143c3.657143 14.628571 18.285714 25.6 32.914286 21.942857 128-25.6 219.428571-47.542857 274.285714-69.485714 58.514286-25.6 128-65.828571 208.457143-124.342857l18.285714-14.628572-3.657142 21.942857c-7.314286 65.828571-43.885714 106.057143-98.742858 113.371429z m1013.028572 95.085714c-21.942857 0-43.885714-14.628571-51.2-36.571428-10.971429-32.914286 18.285714-69.485714 47.542857-84.114286 21.942857-14.628571 40.228571-32.914286 51.2-54.857143 18.285714-29.257143 29.257143-62.171429 36.571429-95.085714 0-7.314286 3.657143-14.628571 3.657142-25.6 7.314286-36.571429 36.571429-62.171429 69.485715-62.171429 29.257143 0 51.2 21.942857 51.2 51.2v10.971429c-21.942857 91.428571-40.228571 149.942857-58.514286 182.857143-29.257143 54.857143-76.8 91.428571-135.314286 109.714285h-3.657143c0 3.657143-3.657143 3.657143-10.971428 3.657143z m3.657143-102.4c-21.942857 10.971429-43.885714 40.228571-36.571429 62.171429 7.314286 18.285714 25.6 29.257143 47.542857 21.942857 54.857143-18.285714 95.085714-51.2 124.342857-102.4 18.285714-29.257143 36.571429-87.771429 54.857143-175.542857v-7.314286c0-18.285714-14.628571-32.914286-32.914285-32.914286-25.6 0-47.542857 18.285714-51.2 43.885715-3.657143 10.971429-3.657143 21.942857-3.657143 25.6-7.314286 36.571429-18.285714 69.485714-36.571429 102.4-14.628571 21.942857-32.914286 43.885714-58.514286 62.171428h-7.314285z m1536 102.4c-32.914286 0-62.171429-25.6-62.171429-62.171428v-18.285715h-219.428571c-29.257143 0-54.857143-25.6-54.857143-54.857142s25.6-54.857143 54.857143-54.857143h219.428571v-25.6h-160.914286c-32.914286 0-62.171429-14.628571-84.114285-40.228572-18.285714-21.942857-29.257143-54.857143-29.257143-98.742857v-120.685714c0-36.571429 10.971429-65.828571 36.571428-84.114286 21.942857-18.285714 47.542857-29.257143 76.8-29.257143h442.514286c32.914286 0 62.171429 10.971429 84.114286 36.571429 18.285714 21.942857 29.257143 43.885714 29.257143 73.142857v142.628571c0 80.457143-43.885714 124.342857-128 124.342858H4242.285714v25.6h215.771429c29.257143 0 54.857143 25.6 54.857143 54.857142s-25.6 54.857143-54.857143 54.857143H4242.285714v18.285715c0 32.914286-25.6 58.514286-62.171428 58.514285z m-277.942857-171.885714c-18.285714 0-36.571429 14.628571-36.571429 36.571429s14.628571 36.571429 36.571429 36.571428h237.714285v36.571429c0 21.942857 18.285714 43.885714 43.885715 43.885714s43.885714-18.285714 43.885714-43.885714v-36.571429h234.057143c18.285714 0 36.571429-14.628571 36.571428-36.571428s-14.628571-36.571429-36.571428-36.571429h-234.057143v-62.171429h160.914286c73.142857 0 109.714286-32.914286 109.714285-106.057142V512c0-21.942857-7.314286-40.228571-25.6-58.514286-18.285714-21.942857-40.228571-29.257143-69.485714-29.257143h-442.514286c-21.942857 0-43.885714 7.314286-62.171428 25.6-18.285714 18.285714-29.257143 40.228571-29.257143 73.142858v120.685714c0 40.228571 7.314286 65.828571 21.942857 84.114286 21.942857 21.942857 43.885714 32.914286 73.142857 32.914285h179.2v62.171429h-241.371428z m2501.485714 171.885714h-310.857143c-51.2 0-91.428571-18.285714-120.685714-54.857143-21.942857-25.6-32.914286-62.171429-32.914286-106.057142V95.085714c0-32.914286 25.6-58.514286 58.514286-58.514285s58.514286 25.6 58.514285 58.514285v720.457143c0 40.228571 18.285714 58.514286 54.857143 58.514286h292.571429c32.914286 0 62.171429 25.6 62.171428 62.171428s-29.257143 54.857143-62.171428 54.857143z m-402.285714-939.885714c-21.942857 0-40.228571 18.285714-40.228572 40.228571v735.085715c0 40.228571 10.971429 73.142857 29.257143 95.085714 25.6 32.914286 58.514286 47.542857 106.057143 47.542857h310.857143c21.942857 0 43.885714-18.285714 43.885714-43.885714s-18.285714-43.885714-43.885714-43.885714h-292.571429c-47.542857 0-73.142857-25.6-73.142857-76.8V95.085714c0-21.942857-18.285714-43.885714-40.228571-43.885714zM2497.828571 991.085714c-32.914286 0-62.171429-29.257143-62.171428-62.171428V424.228571c-29.257143 21.942857-62.171429 40.228571-95.085714 58.514286l-14.628572 7.314286v-3.657143c-7.314286 0-10.971429 0-18.285714-3.657143-18.285714-10.971429-29.257143-40.228571-29.257143-62.171428 0-32.914286 18.285714-65.828571 47.542857-84.114286 25.6-18.285714 47.542857-36.571429 62.171429-54.857143 21.942857-25.6 47.542857-87.771429 80.457143-186.514286 10.971429-36.571429 47.542857-62.171429 84.114285-62.171428 29.257143 0 54.857143 25.6 54.857143 54.857143v10.971428c-3.657143 18.285714-7.314286 32.914286-10.971428 43.885714-7.314286 29.257143-21.942857 69.485714-43.885715 117.028572v669.257143c7.314286 36.571429-21.942857 62.171429-54.857143 62.171428z m-43.885714-603.428571v541.257143c0 25.6 18.285714 43.885714 43.885714 43.885714s43.885714-18.285714 43.885715-43.885714V256c21.942857-51.2 36.571429-87.771429 43.885714-117.028571 3.657143-7.314286 7.314286-21.942857 10.971429-43.885715v-7.314285c0-21.942857-18.285714-36.571429-36.571429-36.571429-29.257143 0-58.514286 18.285714-65.828571 47.542857-32.914286 102.4-62.171429 164.571429-84.114286 193.828572-14.628571 18.285714-36.571429 36.571429-62.171429 54.857142l-7.314285 3.657143c-21.942857 14.628571-40.228571 43.885714-40.228572 69.485715 0 14.628571 7.314286 40.228571 18.285714 43.885714 3.657143 3.657143 7.314286 3.657143 14.628572 0l14.628571-7.314286c32.914286-14.628571 62.171429-36.571429 91.428572-62.171428l14.628571-7.314286zM6692.571429 991.085714h-10.971429c-43.885714-3.657143-76.8-14.628571-98.742857-32.914285-40.228571-32.914286-62.171429-95.085714-65.828572-186.514286l-21.942857-658.285714c0-32.914286 25.6-58.514286 54.857143-58.514286 36.571429 0 62.171429 25.6 62.171429 58.514286l21.942857 647.314285c0 47.542857 7.314286 76.8 18.285714 95.085715 7.314286 10.971429 14.628571 14.628571 25.6 14.628571h7.314286c21.942857 3.657143 36.571429 29.257143 36.571428 62.171429 7.314286 32.914286-7.314286 51.2-29.257142 58.514285zM6553.6 73.142857c-21.942857 0-40.228571 18.285714-40.228571 40.228572l21.942857 658.285714c3.657143 87.771429 21.942857 142.628571 58.514285 171.885714 18.285714 14.628571 47.542857 25.6 84.114286 25.6 21.942857 0 29.257143-21.942857 29.257143-40.228571 0-21.942857-7.314286-43.885714-29.257143-43.885715h-10.971428c-10.971429-3.657143-21.942857-10.971429-32.914286-21.942857-14.628571-18.285714-21.942857-54.857143-21.942857-106.057143L6590.171429 109.714286c7.314286-18.285714-10.971429-36.571429-36.571429-36.571429zM3525.485714 991.085714c-32.914286 0-62.171429-25.6-62.171428-62.171428V142.628571c0-36.571429 10.971429-62.171429 29.257143-84.114285s43.885714-29.257143 69.485714-29.257143h142.628571c36.571429 0 62.171429 10.971429 80.457143 29.257143 18.285714 21.942857 29.257143 43.885714 29.257143 65.828571V402.285714c0 25.6-7.314286 47.542857-21.942857 62.171429 10.971429 7.314286 18.285714 18.285714 18.285714 29.257143 0 7.314286 3.657143 18.285714 3.657143 32.914285v292.571429c0 29.257143-10.971429 54.857143-29.257143 76.8-18.285714 18.285714-40.228571 29.257143-69.485714 29.257143h-25.6c-32.914286 0-62.171429-25.6-62.171429-62.171429V841.142857c0-21.942857 18.285714-36.571429 36.571429-36.571428s21.942857-7.314286 21.942857-25.6v-223.085715c0-21.942857-10.971429-25.6-21.942857-25.6-29.257143 0-51.2-21.942857-51.2-51.2v-21.942857c0-25.6 21.942857-47.542857 47.542857-47.542857 21.942857 0 21.942857-10.971429 21.942857-21.942857V175.542857c0-18.285714-7.314286-25.6-25.6-25.6h-58.514286c-18.285714 0-25.6 7.314286-25.6 25.6v753.371429c14.628571 32.914286-14.628571 62.171429-47.542857 62.171428z m40.228572-943.542857c-21.942857 0-40.228571 7.314286-58.514286 25.6-14.628571 14.628571-25.6 40.228571-25.6 69.485714v786.285715c0 21.942857 18.285714 43.885714 43.885714 43.885714s43.885714-18.285714 43.885715-43.885714V175.542857c0-25.6 14.628571-43.885714 43.885714-43.885714h58.514286c29.257143 0 43.885714 14.628571 43.885714 43.885714v212.114286c0 25.6-14.628571 40.228571-40.228572 40.228571-18.285714 0-29.257143 14.628571-29.257142 29.257143v18.285714c0 18.285714 14.628571 32.914286 32.914285 32.914286 14.628571 0 40.228571 7.314286 40.228572 43.885714v223.085715c0 25.6-14.628571 43.885714-40.228572 43.885714-10.971429 0-18.285714 7.314286-18.285714 18.285714v21.942857c0 21.942857 18.285714 43.885714 43.885714 43.885715h25.6c21.942857 0 40.228571-7.314286 54.857143-21.942857 18.285714-18.285714 25.6-36.571429 25.6-62.171429v-292.571429c0-10.971429 0-21.942857-3.657143-29.257142 0-7.314286-7.314286-14.628571-18.285714-21.942858l-10.971429-7.314285 7.314286-7.314286c14.628571-14.628571 21.942857-32.914286 21.942857-58.514286V128c0-18.285714-7.314286-36.571429-25.6-54.857143-14.628571-14.628571-40.228571-25.6-69.485714-25.6h-146.285714z m2121.142857 939.885714h-7.314286c-21.942857-7.314286-32.914286-29.257143-32.914286-58.514285 0-32.914286 18.285714-47.542857 32.914286-58.514286l7.314286-3.657143c14.628571-3.657143 25.6-10.971429 29.257143-21.942857 7.314286-14.628571 10.971429-32.914286 10.971428-62.171429l21.942857-672.914285c0-32.914286 29.257143-58.514286 62.171429-58.514286 32.914286 0 58.514286 25.6 58.514286 58.514286v3.657143l-25.6 665.6c-7.314286 142.628571-54.857143 208.457143-157.257143 208.457142z m3.657143-102.4c-18.285714 7.314286-29.257143 18.285714-29.257143 43.885715 0 21.942857 10.971429 40.228571 25.6 40.228571 91.428571 0 131.657143-58.514286 135.314286-190.171428l25.6-665.6c0-21.942857-18.285714-40.228571-40.228572-40.228572-21.942857 0-43.885714 18.285714-43.885714 40.228572l-21.942857 672.914285c0 32.914286-3.657143 54.857143-14.628572 73.142857-7.314286 10.971429-18.285714 18.285714-36.571428 25.6zM76.8 987.428571c-10.971429 0-21.942857-3.657143-32.914286-10.971428-10.971429-10.971429-18.285714-21.942857-18.285714-40.228572 0-25.6 18.285714-51.2 43.885714-62.171428h14.628572l69.485714-10.971429c40.228571-7.314286 76.8-18.285714 117.028571-36.571428 62.171429-29.257143 124.342857-65.828571 182.857143-113.371429H109.714286c-32.914286 0-58.514286-25.6-58.514286-58.514286 0-32.914286 29.257143-62.171429 62.171429-62.171428h442.514285c10.971429-21.942857 18.285714-47.542857 18.285715-76.8v-256c0-32.914286 25.6-62.171429 62.171428-62.171429 32.914286 0 62.171429 25.6 62.171429 62.171429v266.971428c0 14.628571-3.657143 36.571429-7.314286 65.828572h351.085714c32.914286 0 58.514286 25.6 58.514286 58.514286 0 32.914286-29.257143 62.171429-62.171429 62.171428H629.028571c-43.885714 54.857143-87.771429 98.742857-135.314285 131.657143-87.771429 62.171429-160.914286 95.085714-252.342857 120.685714-43.885714 10.971429-98.742857 18.285714-160.914286 21.942857h-3.657143z m7.314286-95.085714c-21.942857 3.657143-36.571429 25.6-36.571429 43.885714 0 10.971429 3.657143 18.285714 10.971429 25.6 7.314286 7.314286 14.628571 7.314286 25.6 7.314286 62.171429-3.657143 113.371429-10.971429 157.257143-21.942857 91.428571-21.942857 157.257143-54.857143 245.028571-117.028571 47.542857-32.914286 91.428571-76.8 135.314286-131.657143l3.657143-3.657143h413.257142c21.942857 0 43.885714-18.285714 43.885715-43.885714 0-21.942857-18.285714-43.885714-40.228572-43.885715H661.942857l3.657143-10.971428c7.314286-32.914286 10.971429-58.514286 10.971429-73.142857V256c0-21.942857-18.285714-43.885714-43.885715-43.885714s-43.885714 18.285714-43.885714 43.885714v256c0 32.914286-7.314286 62.171429-21.942857 87.771429l-3.657143 3.657142H109.714286c-21.942857 0-43.885714 18.285714-43.885715 43.885715 0 21.942857 18.285714 40.228571 40.228572 40.228571h391.314286l-18.285715 14.628572c-65.828571 54.857143-135.314286 102.4-204.8 131.657142-43.885714 18.285714-80.457143 29.257143-120.685714 40.228572l-69.485714 18.285714z m6319.542857-80.457143h-10.971429c-47.542857 0-91.428571-18.285714-128-54.857143-32.914286-32.914286-51.2-76.8-58.514285-131.657142l-43.885715-537.6c-3.657143-29.257143 21.942857-58.514286 51.2-58.514286h3.657143c32.914286 0 62.171429 25.6 62.171429 58.514286l43.885714 541.257142c3.657143 43.885714 25.6 65.828571 65.828571 65.828572h7.314286c21.942857 3.657143 36.571429 29.257143 36.571429 62.171428 7.314286 25.6-7.314286 47.542857-29.257143 54.857143z m-18.285714-21.942857l10.971428 3.657143c14.628571 0 25.6-18.285714 25.6-40.228571 0-21.942857-7.314286-43.885714-25.6-43.885715h-7.314286c-43.885714-3.657143-69.485714-32.914286-73.142857-80.457143l-43.885714-541.257142c0-21.942857-21.942857-40.228571-43.885714-40.228572h-3.657143c-21.942857 0-36.571429 18.285714-32.914286 40.228572l43.885714 537.6c3.657143 51.2 21.942857 91.428571 51.2 120.685714 21.942857 25.6 58.514286 43.885714 98.742858 43.885714z m1152-3.657143h-182.857143c-32.914286 0-62.171429-10.971429-84.114286-32.914285-18.285714-21.942857-29.257143-43.885714-29.257143-73.142858 0-21.942857 3.657143-51.2 14.628572-80.457142l73.142857-215.771429c10.971429-32.914286 40.228571-54.857143 76.8-54.857143 25.6 0 47.542857 21.942857 47.542857 47.542857 0 3.657143 0 10.971429-3.657143 14.628572l-76.8 230.4c-7.314286 18.285714-7.314286 29.257143-7.314286 36.571428 0 3.657143 0 14.628571 21.942857 14.628572h106.057143c32.914286 0 32.914286-14.628571 32.914286-21.942857 0-7.314286 0-18.285714-3.657143-32.914286l-14.628571-87.771429c-3.657143-25.6 10.971429-51.2 36.571428-54.857143h7.314286c29.257143 0 58.514286 21.942857 62.171429 51.2l14.628571 84.114286c3.657143 18.285714 3.657143 36.571429 3.657143 54.857143 0 40.228571-10.971429 73.142857-36.571429 98.742857-14.628571 14.628571-32.914286 21.942857-58.514285 21.942857z m-131.657143-442.514285c-25.6 0-51.2 18.285714-58.514286 43.885714l-73.142857 215.771428c-10.971429 29.257143-14.628571 54.857143-14.628572 76.8 0 25.6 7.314286 43.885714 25.6 62.171429 18.285714 18.285714 40.228571 29.257143 73.142858 29.257143h182.857142c18.285714 0 36.571429-7.314286 47.542858-21.942857 18.285714-21.942857 29.257143-47.542857 29.257142-84.114286 0-14.628571 0-32.914286-3.657142-51.2l-14.628572-84.114286c-3.657143-21.942857-21.942857-36.571429-43.885714-36.571428h-3.657143c-14.628571 3.657143-25.6 18.285714-21.942857 32.914285l14.628571 87.771429c3.657143 14.628571 3.657143 29.257143 3.657143 36.571429 0 14.628571-7.314286 40.228571-51.2 40.228571h-106.057143c-36.571429 0-40.228571-18.285714-40.228571-32.914286 0-10.971429 3.657143-25.6 10.971428-43.885714l76.8-230.4v-7.314286c-7.314286-18.285714-18.285714-32.914286-32.914285-32.914285z m-266.971429 405.942857c-32.914286 0-58.514286-25.6-58.514286-58.514286V182.857143c0-18.285714-7.314286-25.6-25.6-25.6h-124.342857c-10.971429 0-18.285714 3.657143-21.942857 7.314286 0 3.657143-3.657143 7.314286-3.657143 21.942857v504.685714c0 32.914286-25.6 58.514286-58.514285 58.514286-32.914286 0-58.514286-25.6-58.514286-58.514286V157.257143c0-102.4 58.514286-124.342857 106.057143-124.342857h190.171428c76.8 0 113.371429 40.228571 113.371429 113.371428v541.257143c0 32.914286-25.6 62.171429-58.514286 62.171429z m-208.457143-610.742857h124.342857c29.257143 0 43.885714 14.628571 43.885715 43.885714v508.342857c0 21.942857 18.285714 40.228571 40.228571 40.228571 21.942857 0 40.228571-18.285714 40.228572-40.228571V149.942857c0-65.828571-32.914286-95.085714-95.085715-95.085714h-190.171428c-58.514286 0-87.771429 32.914286-87.771429 106.057143v530.285714c0 21.942857 18.285714 40.228571 40.228572 40.228571 21.942857 0 40.228571-18.285714 40.228571-40.228571V186.514286c0-14.628571 3.657143-25.6 7.314286-32.914286 7.314286-10.971429 21.942857-14.628571 36.571428-14.628571z m-2570.971428 544.914285h-362.057143c-29.257143 0-43.885714-18.285714-43.885714-47.542857V621.714286h453.485714v18.285714c0 25.6-18.285714 43.885714-47.542857 43.885714z m-387.657143-47.542857c0 25.6 14.628571 29.257143 25.6 29.257143h362.057143c25.6 0 29.257143-14.628571 29.257143-25.6h-416.914286z m435.2-84.114286h-453.485714v-14.628571c0-14.628571 7.314286-40.228571 47.542857-40.228571h358.4c43.885714 0 51.2 25.6 51.2 40.228571v14.628571z m-435.2-18.285714H4388.571429c0-10.971429-7.314286-18.285714-32.914286-18.285714h-358.4c-21.942857 0-25.6 7.314286-25.6 18.285714z m-3499.885714-14.628571H113.371429c-32.914286 0-62.171429-25.6-62.171429-62.171429s25.6-62.171429 62.171429-62.171428h358.4c32.914286 0 62.171429 25.6 62.171428 62.171428s-29.257143 62.171429-62.171428 62.171429z m-358.4-102.4c-21.942857 0-43.885714 18.285714-43.885715 43.885714s18.285714 43.885714 43.885715 43.885714h358.4c21.942857 0 43.885714-18.285714 43.885714-43.885714s-18.285714-43.885714-43.885714-43.885714H113.371429z m917.942857-29.257143c-32.914286 0-62.171429-29.257143-62.171429-62.171429V226.742857c0-29.257143-3.657143-47.542857-14.628571-58.514286-7.314286-7.314286-25.6-14.628571-73.142857-14.628571h-768c-32.914286 0-62.171429-29.257143-62.171429-62.171429S80.457143 29.257143 113.371429 29.257143h782.628571c62.171429 0 109.714286 14.628571 142.628571 40.228571 36.571429 29.257143 58.514286 69.485714 58.514286 117.028572v138.971428c-3.657143 36.571429-29.257143 62.171429-65.828571 62.171429zM113.371429 47.542857c-21.942857 0-43.885714 18.285714-43.885715 43.885714 0 21.942857 18.285714 43.885714 43.885715 43.885715h771.657142c40.228571 0 69.485714 7.314286 84.114286 21.942857 14.628571 14.628571 21.942857 36.571429 21.942857 73.142857V329.142857c0 21.942857 18.285714 43.885714 43.885715 43.885714s43.885714-18.285714 43.885714-43.885714V190.171429c0-43.885714-14.628571-76.8-51.2-102.4-29.257143-25.6-73.142857-36.571429-131.657143-36.571429H113.371429z m4344.685714 329.142857h-552.228572c-32.914286 0-58.514286-25.6-58.514285-58.514285s25.6-58.514286 58.514285-58.514286h14.628572c0-32.914286 25.6-62.171429 62.171428-62.171429 32.914286 0 62.171429 25.6 62.171429 62.171429h277.942857c0-32.914286 25.6-58.514286 58.514286-58.514286s58.514286 25.6 58.514286 58.514286h18.285714c32.914286 0 58.514286 25.6 58.514286 58.514286s-29.257143 58.514286-58.514286 58.514285z m-552.228572-98.742857c-21.942857 0-40.228571 18.285714-40.228571 40.228572s18.285714 40.228571 40.228571 40.228571h552.228572c21.942857 0 40.228571-18.285714 40.228571-40.228571s-18.285714-40.228571-40.228571-40.228572h-36.571429V256c0-21.942857-18.285714-40.228571-40.228571-40.228571s-40.228571 18.285714-40.228572 40.228571v18.285714h-314.514285V256c0-21.942857-18.285714-43.885714-43.885715-43.885714s-43.885714 18.285714-43.885714 43.885714v18.285714h-32.914286zM113.371429 354.742857c-32.914286 0-62.171429-29.257143-62.171429-62.171428 0-32.914286 29.257143-62.171429 62.171429-62.171429h354.742857c32.914286 0 62.171429 29.257143 62.171428 62.171429 0 32.914286-29.257143 62.171429-62.171428 62.171428H113.371429z m0-106.057143c-25.6 0-43.885714 18.285714-43.885715 43.885715 0 10.971429 3.657143 21.942857 14.628572 29.257142 7.314286 7.314286 18.285714 10.971429 29.257143 10.971429h354.742857c25.6 0 43.885714-18.285714 43.885714-43.885714 0-21.942857-18.285714-43.885714-43.885714-43.885715H113.371429z m3057.371428 69.485715h-358.4c-18.285714 0-32.914286-3.657143-40.228571-10.971429-3.657143-3.657143-10.971429-14.628571-10.971429-51.2V197.485714c0-25.6 3.657143-40.228571 10.971429-47.542857 3.657143-3.657143 14.628571-10.971429 62.171428-10.971428h336.457143c32.914286 0 51.2 3.657143 58.514286 18.285714 3.657143 7.314286 7.314286 21.942857 7.314286 47.542857v69.485714c0 25.6-10.971429 32.914286-18.285715 40.228572-10.971429 3.657143-25.6 3.657143-47.542857 3.657143z m-336.457143-160.914286c-40.228571 0-47.542857 3.657143-47.542857 3.657143-3.657143 3.657143-7.314286 10.971429-7.314286 36.571428V256c0 32.914286 3.657143 36.571429 3.657143 36.571429 3.657143 3.657143 10.971429 7.314286 29.257143 7.314285h358.4c21.942857 0 32.914286-3.657143 36.571429-3.657143 3.657143 0 10.971429-3.657143 10.971428-21.942857V204.8c0-25.6-3.657143-32.914286-3.657143-36.571429 0-3.657143-7.314286-7.314286-43.885714-7.314285h-336.457143zM1247.085714 270.628571c-32.914286 0-62.171429-29.257143-62.171428-62.171428v-7.314286c0-76.8 40.228571-117.028571 117.028571-117.028571H1645.714286c0-32.914286 29.257143-58.514286 62.171428-58.514286s58.514286 25.6 62.171429 58.514286h325.485714c47.542857 0 80.457143 7.314286 102.4 25.6 21.942857 21.942857 36.571429 51.2 36.571429 91.428571v7.314286c0 14.628571-7.314286 32.914286-18.285715 43.885714s-25.6 18.285714-43.885714 18.285714c-32.914286 0-58.514286-21.942857-65.828571-51.2 0-7.314286-3.657143-7.314286-3.657143-7.314285-3.657143-3.657143-10.971429-7.314286-25.6-7.314286H1342.171429c-18.285714 0-25.6 3.657143-29.257143 7.314286 0 0-3.657143 3.657143-3.657143 7.314285-7.314286 32.914286-32.914286 51.2-62.171429 51.2z m95.085715-84.114285h738.742857c14.628571 0 29.257143 3.657143 36.571428 14.628571 3.657143 3.657143 3.657143 7.314286 7.314286 14.628572 3.657143 21.942857 21.942857 36.571429 47.542857 36.571428 10.971429 0 21.942857-3.657143 29.257143-10.971428 7.314286-7.314286 10.971429-18.285714 10.971429-29.257143v-7.314286c0-36.571429-10.971429-62.171429-29.257143-76.8-18.285714-14.628571-47.542857-21.942857-91.428572-21.942857h-343.771428v-14.628572c0-21.942857-18.285714-43.885714-43.885715-43.885714s-43.885714 18.285714-43.885714 43.885714v14.628572h-362.057143c-65.828571 0-98.742857 32.914286-98.742857 98.742857v7.314286c0 21.942857 18.285714 43.885714 43.885714 43.885714 21.942857 0 40.228571-14.628571 47.542858-36.571429 3.657143-7.314286 3.657143-14.628571 7.314285-18.285714 10.971429-10.971429 25.6-14.628571 43.885715-14.628571z m3115.885714-7.314286h-552.228572c-32.914286 0-58.514286-25.6-58.514285-58.514286s25.6-58.514286 58.514285-58.514285h215.771429c3.657143-18.285714 21.942857-32.914286 40.228571-32.914286h36.571429c21.942857 0 36.571429 14.628571 40.228571 32.914286h215.771429c32.914286 0 58.514286 25.6 58.514286 58.514285s-25.6 58.514286-54.857143 58.514286z m-552.228572-95.085714c-21.942857 0-40.228571 18.285714-40.228571 40.228571s18.285714 40.228571 40.228571 40.228572h552.228572c21.942857 0 40.228571-18.285714 40.228571-40.228572s-18.285714-40.228571-40.228571-40.228571h-234.057143V73.142857c0-14.628571-10.971429-25.6-25.6-25.6h-36.571429c-14.628571 0-25.6 10.971429-25.6 25.6v7.314286h-230.4z" fill="#FF442E" p-id="3736"></path></svg>