<?xml version="1.0" standalone="no"?><!DOCTYPE svg PUBLIC "-//W3C//DTD SVG 1.1//EN" "http://www.w3.org/Graphics/SVG/1.1/DTD/svg11.dtd"><svg t="1574321772470" class="icon" viewBox="0 0 1024 1024" version="1.1" xmlns="http://www.w3.org/2000/svg" p-id="3770" xmlns:xlink="http://www.w3.org/1999/xlink" width="64" height="64"><defs><style type="text/css"></style></defs><path d="M926.76096 619.70432c16.97792 61.78816 19.08736 124.49792 8.88832 187.45344-4.23936 27.2384-11.79648 53.16608-27.8528 75.9808-31.5392 44.91264-74.99776 69.55008-131.46112 69.67296-175.73888 0.26624-351.62112-0.12288-527.36 0.26624-74.62912 0.12288-136.78592-51.34336-154.80832-120.1152-11.53024-43.6224-14.19264-87.73632-10.99776-132.23936 11.53024-161.01376 110.3872-302.55104 256.7168-367.69792 1.59744-0.65536 3.19488-1.4336 4.77184-2.19136-6.22592-6.4512-12.57472-12.51328-18.41152-18.96448-28.63104-31.10912-45.19936-67.21536-50.62656-109.03552-6.22592-48.128 28.8768-83.3536 71.43424-91.8528 22.38464-4.5056 44.25728-2.58048 65.20832 6.84032 3.1744 1.4336 4.9152 0.90112 7.29088-1.29024 51.54816-46.57152 133.7344-46.05952 184.89344 1.024 2.64192 2.58048 4.5056 1.82272 7.2704 0.65536 39.77216-16.13824 77.53728-12.9024 110.67392 14.58176 24.51456 20.3776 32.74752 46.96064 24.2688 77.80352-3.72736 13.27104-6.36928 26.8288-11.14112 39.7312-10.46528 28.2624-27.97568 52.24448-50.23744 73.0112-2.10944 2.06848-4.36224 4.01408-6.49216 6.06208-0.26624 0.26624-0.26624 0.65536-0.4096 0.77824 12.86144 6.4512 25.98912 12.3904 38.44096 19.49696 108.29824 61.6448 177.60256 152.49408 209.94048 270.0288zM630.272 779.6736c19.88608-0.12288 35.92192-15.48288 35.92192-34.32448 0-19.08736-16.03584-34.57024-35.90144-34.69312v-0.12288h-71.31136c-0.79872 0-1.59744-0.65536-1.59744-1.55648v-31.3344c0-0.79872 0.65536-1.55648 1.59744-1.55648h71.04512c19.8656 0 35.90144-15.48288 35.90144-34.59072 0-19.08736-16.03584-34.57024-35.90144-34.69312v-0.14336h-71.168c-0.8192 0-1.47456-0.63488-1.59744-1.41312a1.6384 1.6384 0 0 1 0.53248-1.29024l84.80768-83.21024c13.9264-15.09376 6.90176-27.48416-7.14752-41.1648-14.17216-13.68064-37.376-16.62976-48.78336-4.64896l-72.23296 73.80992a1.72032 1.72032 0 0 1-2.37568 0l-78.06976-74.9568c-9.9328-9.68704-29.55264-6.4512-43.6224 6.9632-14.0288 13.4144-17.34656 32.256-7.2704 41.79968l80.05632 76.75904a1.536 1.536 0 0 1 0.26624 1.9456 22.6304 22.6304 0 0 0-1.98656 3.9936c-0.14336 0.65536-0.8192 1.024-1.45408 1.024H395.1616c-20.00896 0-36.18816 15.62624-36.18816 34.7136 0 19.23072 16.30208 34.7136 36.18816 34.7136h0.12288v0.12288h70.656c0.79872 0 1.57696 0.65536 1.57696 1.55648v31.3344a1.59744 1.59744 0 0 1-1.57696 1.55648h-70.77888c-20.00896 0-36.18816 15.48288-36.18816 34.7136 0 19.21024 16.30208 34.69312 36.18816 34.69312h70.77888c0.79872 0 1.57696 0.65536 1.57696 1.55648v33.28h0.94208a42.74176 42.74176 0 0 0-0.94208 8.3968c0 23.98208 20.2752 43.33568 45.19936 43.33568 24.92416 0 45.19936-19.456 45.19936-43.33568 0-2.84672-0.4096-5.69344-0.9216-8.3968h0.38912v-33.28c0-0.77824 0.65536-1.55648 1.59744-1.55648h71.29088z" fill="#FFA60D" p-id="3771"></path></svg>