<?xml version="1.0" standalone="no"?><!DOCTYPE svg PUBLIC "-//W3C//DTD SVG 1.1//EN" "http://www.w3.org/Graphics/SVG/1.1/DTD/svg11.dtd"><svg t="1575351754918" class="icon" viewBox="0 0 1024 1024" version="1.1" xmlns="http://www.w3.org/2000/svg" p-id="12339" xmlns:xlink="http://www.w3.org/1999/xlink" width="48" height="48"><defs><style type="text/css"></style></defs><path d="M512 64.2C264.7 64.2 64.2 264.7 64.2 512S264.7 959.8 512 959.8 959.8 759.3 959.8 512 759.3 64.2 512 64.2z m0 852.9c-223.7 0-405.1-181.4-405.1-405.1S288.3 106.9 512 106.9 917.1 288.3 917.1 512 735.7 917.1 512 917.1z" fill="#D84D40" p-id="12340"></path><path d="M512 298.8m-42.6 0a42.6 42.6 0 1 0 85.2 0 42.6 42.6 0 1 0-85.2 0Z" fill="#D84D40" p-id="12341"></path><path d="M512 426.7c11.8 0 21.3 9.5 21.3 21.3v298.5c0 11.8-9.5 21.3-21.3 21.3s-21.3-9.5-21.3-21.3V448c0-11.7 9.5-21.3 21.3-21.3z" fill="#D84D40" p-id="12342"></path></svg>