<?xml version="1.0" standalone="no"?><!DOCTYPE svg PUBLIC "-//W3C//DTD SVG 1.1//EN" "http://www.w3.org/Graphics/SVG/1.1/DTD/svg11.dtd"><svg t="1574146663339" class="icon" viewBox="0 0 1024 1024" version="1.1" xmlns="http://www.w3.org/2000/svg" p-id="17556" xmlns:xlink="http://www.w3.org/1999/xlink" width="48" height="48"><defs><style type="text/css"></style></defs><path d="M512 1024C229.226667 1024 0 794.773333 0 512S229.226667 0 512 0s512 229.226667 512 512-229.226667 512-512 512z m-150.869333-661.333333a20.053333 20.053333 0 0 0-19.797334 20.266666c0 11.221333 8.874667 20.288 19.797334 20.288h216.405333a20.053333 20.053333 0 0 0 19.797333-20.266666 20.053333 20.053333 0 0 0-19.797333-20.288H361.130667z m0 105.706666a20.053333 20.053333 0 0 0-19.797334 20.266667 20.053333 20.053333 0 0 0 19.797334 20.309333h151.253333a20.053333 20.053333 0 0 0 19.797333-20.288 20.053333 20.053333 0 0 0-19.818666-20.266666h-151.232v-0.021334z m0 109.738667a20.053333 20.053333 0 0 0-19.797334 20.266667c0 11.221333 8.874667 20.288 19.797334 20.288h96.085333a20.053333 20.053333 0 0 0 19.797333-20.266667 20.053333 20.053333 0 0 0-19.797333-20.288h-96.085333z m-65.642667 171.2s-0.042667 0.256-0.042667-2.666667V296h390.442667v180.373333c0 11.050667 8.832 20.010667 19.712 20.010667 10.901333 0 19.733333-8.96 19.733333-20.010667v-175.04C725.333333 276.266667 705.322667 256 680.64 256h-379.946667C276.010667 256 256 276.288 256 301.333333v442.666667C256 769.066667 276.010667 789.333333 300.693333 789.333333h170.944c10.88 0 19.733333-8.96 19.733334-20.010666a19.861333 19.861333 0 0 0-19.733334-19.989334h-176.149333z m441.813333 7.68c-0.32 0.277333-0.704 0.362667-0.981333 0.661333-0.256 0.298667-0.405333 0.704-0.661333 0.96a99.2 99.2 0 0 1-69.546667 28.416 99.584 99.584 0 1 1 99.584-99.584 98.901333 98.901333 0 0 1-28.416 69.546667z m32.874667 12.010667c17.706667-22.570667 28.714667-50.624 28.714667-81.557334a132.778667 132.778667 0 1 0-132.778667 132.778667c30.933333 0 58.986667-11.008 81.557333-28.714667l57.173334 57.173334a15.936 15.936 0 0 0 22.506666-22.506667l-57.173333-57.173333z" fill="#1ABDC4" p-id="17557"></path></svg>