<?xml version="1.0" standalone="no"?><!DOCTYPE svg PUBLIC "-//W3C//DTD SVG 1.1//EN" "http://www.w3.org/Graphics/SVG/1.1/DTD/svg11.dtd"><svg t="1583754513087" class="icon" viewBox="0 0 1024 1024" version="1.1" xmlns="http://www.w3.org/2000/svg" p-id="5027" xmlns:xlink="http://www.w3.org/1999/xlink" width="128" height="128"><defs><style type="text/css"></style></defs><path d="M598.8096 171.50976s127.60576-5.27872 73.62048 226.944c0 0 33.7408 68.39296-25.15456 101.376 0 0-7.36256 53.43744-31.90272 73.22624l-1.83808 58.71616s38.65088 49.47968 57.05728 42.21952c24.46336 4.18816 106.74688 45.52192 107.36128 54.09792 0.6144 8.576 17.1776 157.6704 17.1776 157.6704H228.86912l44.78464-157.6704s79.75424-55.41376 133.74464-65.9712c0 0 30.67392-15.17568 26.99264-32.98816l4.29568-54.7584s-29.45024-33.64352-39.87968-81.14688c0 0-38.03648-21.77024-23.31136-85.76512 0 0-46.01344-240.7936 119.63392-265.20576 0 0.00512 86.5024-20.00384 103.68 29.25568z" fill="#f56b3c" p-id="5028"></path></svg>