<?xml version="1.0" standalone="no"?><!DOCTYPE svg PUBLIC "-//W3C//DTD SVG 1.1//EN" "http://www.w3.org/Graphics/SVG/1.1/DTD/svg11.dtd"><svg t="1575351632592" class="icon" viewBox="0 0 1024 1024" version="1.1" xmlns="http://www.w3.org/2000/svg" p-id="5296" width="48" height="48" xmlns:xlink="http://www.w3.org/1999/xlink"><defs><style type="text/css"></style></defs><path d="M699.1 152.7c-8.9 0.3-88.1 4-132.4 46-11.1 10.5-11.2 27.7-0.2 38.3 11 10.6 29 10.6 40.1 0.2 24.3-23 76.5-29.7 93.5-30.4 117.7 0 213.4 80.8 213.4 180.2 0 177.8-319.2 406.9-394.5 458.5-76.3-51.2-399.9-279.6-399.9-458.5 0-99.4 95.7-180.2 213.4-180.2 62.6 0 122 23.9 162.1 64.4l137.8 158.1c10 11.4 27.8 13.1 39.9 3.5 12-9.6 13.7-26.6 3.7-38.1L537 235.4c-51.8-52.5-126.3-82.7-204.4-82.7-148.9 0-270 105.1-270 234.3 0 230.3 422.9 502.6 440.9 514 4.8 3 10.3 4.5 15.7 4.5 5.6 0 11.1-1.6 15.9-4.7 17.8-11.5 435.1-284.8 435.1-513.9-0.1-129.1-121.3-234.2-271.1-234.2z" fill="#F6575B" p-id="5297"></path></svg>