<?xml version="1.0" standalone="no"?><!DOCTYPE svg PUBLIC "-//W3C//DTD SVG 1.1//EN" "http://www.w3.org/Graphics/SVG/1.1/DTD/svg11.dtd"><svg t="1587279270953" class="icon" viewBox="0 0 1024 1024" version="1.1" xmlns="http://www.w3.org/2000/svg" p-id="37623" width="128" height="128" xmlns:xlink="http://www.w3.org/1999/xlink"><defs><style type="text/css"></style></defs><path d="M512 512m-512 0a512 512 0 1 0 1024 0 512 512 0 1 0-1024 0Z" fill="#F9694D" p-id="37624"></path><path d="M675.5 768h-327L234.7 483.1c-27.8-2.5-49.8-26.7-49.8-56.4 0-31.4 24.4-56.9 54.5-56.9s54.5 25.5 54.5 56.9c0 12.1-3.7 23.2-9.8 32.4 19.2 31.7 52.9 52.9 91.6 52.9 50.7 0 93-36.3 105.2-85.3h3.9v-64.8c-16.2-9.9-27.3-28-27.3-49 0-31.4 24.4-56.9 54.5-56.9s54.5 25.5 54.5 56.9c0 21-11 39.1-27.3 49v64.8h3.9c12.2 49 54.4 85.3 105.2 85.3 38.7 0 72.3-21.2 91.6-52.9-6.1-9.2-9.8-20.3-9.8-32.4 0-31.4 24.4-56.9 54.5-56.9s54.5 25.5 54.5 56.9c0 29.7-21.9 53.8-49.8 56.4L675.5 768z" fill="#FFFFFF" p-id="37625"></path></svg>