<?xml version="1.0" standalone="no"?><!DOCTYPE svg PUBLIC "-//W3C//DTD SVG 1.1//EN" "http://www.w3.org/Graphics/SVG/1.1/DTD/svg11.dtd"><svg t="1575440532117" class="icon" viewBox="0 0 1024 1024" version="1.1" xmlns="http://www.w3.org/2000/svg" p-id="2124" width="16" height="16" xmlns:xlink="http://www.w3.org/1999/xlink"><defs><style type="text/css"></style></defs><path d="M512 21.6c-271.2 0-490.4 220-490.4 490.4s220 490.4 490.4 490.4 490.4-220 490.4-490.4c0-271.2-219.2-490.4-490.4-490.4z" fill="#F8D856" p-id="2125"></path><path d="M644 495.2v42.4h-104.8v57.6h104.8v42.4h-104.8v85.6h-53.6v-85.6h-108.8v-42.4h108.8v-57.6h-108.8v-42.4h92l-111.2-192h60c53.6 96 85.6 156 96 181.6 4-10.4 15.2-32 32-64l64-117.6h57.6l-112.8 192h89.6z" fill="#F9CA01" p-id="2126"></path><path d="M512 21.6c-271.2 0-490.4 220-490.4 490.4s220 490.4 490.4 490.4 490.4-220 490.4-490.4c0-271.2-219.2-490.4-490.4-490.4z m0 883.2c-215.2 0-392.8-175.2-392.8-392.8 0-215.2 176.8-390.4 392.8-390.4s392.8 175.2 392.8 392.8c0 215.2-177.6 390.4-392.8 390.4z" fill="#F9CA01" p-id="2127"></path></svg>