<?xml version="1.0" standalone="no"?><!DOCTYPE svg PUBLIC "-//W3C//DTD SVG 1.1//EN" "http://www.w3.org/Graphics/SVG/1.1/DTD/svg11.dtd"><svg t="1574321796083" class="icon" viewBox="0 0 1024 1024" version="1.1" xmlns="http://www.w3.org/2000/svg" p-id="5833" xmlns:xlink="http://www.w3.org/1999/xlink" width="64" height="64"><defs><style type="text/css"></style></defs><path d="M9.216 189.952a383.488 189.952 0 1 0 766.976 0 383.488 189.952 0 1 0-766.976 0z" fill="#FDD100" p-id="5834"></path><path d="M392.704 523.264c10.24 0 20.48-0.512 30.208-1.024 24.064-36.352 54.784-68.096 90.624-93.184a755.023 755.023 0 0 1-120.832 9.728c-182.272 0-334.848-63.488-373.76-147.968C12.8 304.64 9.216 318.464 9.216 332.8c0 104.96 171.52 190.464 383.488 190.464z m292.352-151.552c5.632-0.512 10.752-1.024 16.384-1.024 22.016 0 43.52 2.048 64 6.144 6.656-13.824 10.24-28.672 10.24-43.52 0-14.336-3.584-28.672-9.728-41.984-13.824 30.208-41.984 57.344-80.896 80.384z" fill="#FDD100" p-id="5835"></path><path d="M374.784 648.192c4.608-29.696 13.312-57.856 25.6-83.968h-7.68c-182.272 0-334.848-63.488-373.76-147.968-6.144 13.824-9.728 27.648-9.728 41.984 0 101.888 162.304 185.344 365.568 189.952z" fill="#FDD100" p-id="5836"></path><path d="M19.456 541.184c-6.144 13.824-9.728 27.648-9.728 41.984 0 102.4 163.84 185.856 369.152 189.952-5.12-23.04-8.192-47.104-8.192-71.68-0.512-4.096 0-8.192 0.512-12.8-172.544-4.608-314.368-66.048-351.744-147.456z" fill="#FDD100" p-id="5837"></path><path d="M392.704 899.072c14.336 0 28.16-0.512 41.984-1.024-18.432-25.088-33.28-53.248-44.032-83.456-181.76-0.512-332.8-64-371.712-147.968-6.144 13.824-9.728 27.648-9.728 41.984 0 104.96 171.52 190.464 383.488 190.464z" fill="#FDD100" p-id="5838"></path><path d="M392.704 939.52c-182.272 0-334.848-63.488-373.76-147.968-6.144 13.824-9.728 27.648-9.728 41.984 0 104.96 171.52 189.952 383.488 189.952 62.464 0 121.344-7.68 173.056-20.48-36.352-16.384-69.632-39.424-97.792-67.072-24.576 2.56-49.664 3.584-75.264 3.584z m391.168-256.512h32.768v44.032h-32.768z m-76.8-83.968h32.768v44.032h-32.768z m76.8 0h32.768v44.032h-32.768z" fill="#FDD100" p-id="5839"></path><path d="M703.488 390.144c-172.032 0-311.296 139.264-311.296 311.296 0 172.032 139.264 311.296 311.296 311.296 172.032 0 311.296-139.264 311.296-311.296 0-171.52-139.264-311.296-311.296-311.296z m-49.664 335.36c-9.216 1.536-17.92 3.072-26.624 4.608v85.504c0 24.064-10.24 37.376-30.208 38.912a484.632 484.632 0 0 1-38.912 1.536c-2.048-12.288-5.12-26.624-8.704-42.496 0.512 0 8.704 0 24.576 0.512 7.168 0 10.752-4.608 10.752-13.824v-61.952c-10.752 2.56-22.016 4.608-32.256 7.68l-3.584-46.08c10.752-1.024 22.528-2.56 35.84-4.608v-57.344h-33.28v-39.936h33.28v-54.784H627.2v54.784h29.696v39.936H627.2v50.176a1137.742 1137.742 0 0 1 31.232-6.144c-3.072 18.432-4.608 32.768-4.608 43.52z m204.8 56.832H816.64V768h-32.768v91.648H739.84V768h-32.768v14.336h-41.984V558.08h193.536v224.256z" fill="#FDD100" p-id="5840"></path><path d="M707.072 683.008h32.768v44.032h-32.768z" fill="#FDD100" p-id="5841"></path></svg>