<?xml version="1.0" standalone="no"?><!DOCTYPE svg PUBLIC "-//W3C//DTD SVG 1.1//EN" "http://www.w3.org/Graphics/SVG/1.1/DTD/svg11.dtd"><svg t="1575543535310" class="icon" viewBox="0 0 1195 1024" version="1.1" xmlns="http://www.w3.org/2000/svg" p-id="2729" width="149.375" height="128" xmlns:xlink="http://www.w3.org/1999/xlink"><defs><style type="text/css"></style></defs><path d="M455.613992 503.276584 490.656905 503.276584c0-39.744143 31.402678-71.916212 70.099517-71.916212L560.756422 395.471402C502.64682 395.471402 455.613992 443.698018 455.613992 503.276584z" p-id="2730" fill="#8a8a8a"></path><path d="M560.756422 251.638977c-135.496436 0-245.33462 112.639207-245.33462 251.637608 0 138.994293 109.838184 251.638977 245.33462 251.638977 37.289482 0 72.628105-8.553663 104.275838-23.825129 82.129133-39.631883 139.344763-124.601741 140.997176-223.41928 0.024642-1.463487 0.054761-2.925605 0.054761-4.394568C806.082828 364.278184 696.246014 251.638977 560.756422 251.638977zM665.032261 647.72507c-29.135574 22.160395-65.207994 35.274279-104.275838 35.274279-96.799597 0-175.235103-80.473983-175.235103-179.722764 0-99.254257 78.435506-179.721395 175.235103-179.721395s175.235103 80.467138 175.235103 179.721395c0 1.468963-0.020535 2.933819-0.054761 4.394568C734.593752 565.062017 707.018865 615.789842 665.032261 647.72507z" p-id="2731" fill="#8a8a8a"></path><path d="M1121.503275 326.751861 1121.503275 251.638977c0-59.510115-47.102648-107.805183-105.142431-107.805183l-175.235103 0 0-35.958791c0-59.578566-47.102648-107.875003-105.135586-107.875003l-350.470206 0c-58.039783 0-105.142431 48.296437-105.142431 107.875003l0 35.958791-175.235103 0c-58.039783 0-105.142431 48.225248-105.142431 107.805183l0 575.192797c0 59.510115 47.102648 107.799707 105.142431 107.799707L493.885064 934.63148l170.198463 0 0.948734 0 0-0.024642c26.550856-0.512015 48.117095-22.372594 48.117095-49.041186l0 0c0-26.667223-21.566239-48.529171-48.117095-49.041186l0-0.024642-0.948734 0L493.885064 836.499823l-346.756043 0c-27.407865 0-49.627129-22.498544-49.627129-50.328069L97.501893 282.687077c0-27.754228 22.219263-50.3267 49.627129-50.3267l215.118886 0 0-83.900651c0-27.755597 22.219263-50.328069 49.627129-50.328069l297.825748 0c27.407865 0 49.627129 22.497175 49.627129 50.328069l0 83.900651 215.049066 0c27.407865 0 49.627129 22.502651 49.627129 50.3267l-0.068451 0 0 224.984075 0.164283 0c1.5292 25.634979 22.966751 46.136117 48.968628 46.136117l0 0c26.986206 0 49.06446-22.079623 49.06446-49.06446L1122.133027 334.541609C1122.134396 331.892547 1121.913983 329.291401 1121.503275 326.751861z" p-id="2732" fill="#8a8a8a"></path><path d="M1014.619446 613.11203l0 364.520501c0 25.502184-20.865298 46.367482-46.367482 46.367482l-5.396694 0c-25.502184 0-46.367482-20.865298-46.367482-46.367482L916.487788 613.11203c0-25.502184 20.865298-46.367482 46.367482-46.367482l5.396694 0C993.754147 566.744548 1014.619446 587.609847 1014.619446 613.11203z" p-id="2733" fill="#8a8a8a"></path><path d="M783.294051 746.307137l364.520501 0c25.502184 0 46.367482 20.865298 46.367482 46.367482l0 5.396694c0 25.502184-20.865298 46.367482-46.367482 46.367482L783.294051 844.438794c-25.502184 0-46.367482-20.865298-46.367482-46.367482l0-5.396694C736.926569 767.172435 757.791867 746.307137 783.294051 746.307137z" p-id="2734" fill="#8a8a8a"></path></svg>