<?xml version="1.0" standalone="no"?><!DOCTYPE svg PUBLIC "-//W3C//DTD SVG 1.1//EN" "http://www.w3.org/Graphics/SVG/1.1/DTD/svg11.dtd"><svg t="1583824419823" class="icon" viewBox="0 0 1024 1024" version="1.1" xmlns="http://www.w3.org/2000/svg" p-id="7641" xmlns:xlink="http://www.w3.org/1999/xlink" width="128" height="128"><defs><style type="text/css"></style></defs><path d="M650.24 424.072533h-260.983467c4.5056-38.468267-28.0576-194.798933 92.16-198.621866 114.346667-4.437333 96.529067 142.677333 96.529067 142.677333l55.978667 0.375467S650.24 171.6224 481.416533 170.666667c-184.183467 9.489067-140.970667 222.958933-146.602666 253.405866h4.778666c-36.727467 0-66.525867 30.3104-66.525866 67.6864v225.621334C273.066667 754.756267 302.8992 785.066667 339.626667 785.066667h310.613333c36.7616 0 66.56-30.3104 66.56-67.6864v-225.621334c0-37.376-29.832533-67.6864-66.56-67.6864z m-129.706667 178.688v55.534934c0 13.4144-11.537067 24.3712-25.6 24.3712-14.097067 0-25.6-10.922667-25.6-24.3712v-55.534934c-15.2576-8.430933-25.6-23.995733-25.6-41.984 0-26.965333 22.903467-48.776533 51.2-48.776533s51.2 21.845333 51.2 48.776533c0 17.988267-10.376533 33.553067-25.6 41.984z" fill="#989696" p-id="7642"></path></svg>