<?xml version="1.0" standalone="no"?><!DOCTYPE svg PUBLIC "-//W3C//DTD SVG 1.1//EN" "http://www.w3.org/Graphics/SVG/1.1/DTD/svg11.dtd"><svg t="1574147678711" class="icon" viewBox="0 0 1024 1024" version="1.1" xmlns="http://www.w3.org/2000/svg" p-id="20305" xmlns:xlink="http://www.w3.org/1999/xlink" width="48" height="48"><defs><style type="text/css"></style></defs><path d="M512 512m-512 0a512 512 0 1 0 1024 0 512 512 0 1 0-1024 0Z" fill="#FF6969" p-id="20306"></path><path d="M613.376 352.938667a122.538667 122.538667 0 0 0 41.301333-77.141334C656.042667 198.314667 510.976 204.8 510.976 204.8s-144.042667-7.168-144.042667 70.314667a114.688 114.688 0 0 0 41.642667 76.8C308.224 391.509333 223.232 482.986667 220.16 580.266667c-6.144 188.757333 163.84 217.770667 291.498667 217.770666 128 0 298.325333-24.917333 292.181333-213.674666-3.413333-96.938667-88.064-190.464-190.464-231.424z" fill="#FFFFFF" p-id="20307"></path><path d="M501.077333 505.514667a34.133333 34.133333 0 0 1-27.648 34.133333l-60.074666-82.261333s-2.389333-9.898667 10.24-19.797334a20.821333 20.821333 0 0 1 24.917333-4.096z" fill="#FF6969" p-id="20308"></path><path d="M438.954667 431.104a22.869333 22.869333 0 0 1 9.557333 2.389333l52.565333 72.021334a34.133333 34.133333 0 0 1-27.648 34.133333l-60.074666-82.261333s-2.389333-9.898667 10.24-19.797334a24.234667 24.234667 0 0 1 15.36-6.485333m0-17.066667a43.349333 43.349333 0 0 0-25.941334 9.898667 38.229333 38.229333 0 0 0-16.042666 37.546667v3.413333l2.048 2.730667 60.074666 80.896 6.826667 9.557333 11.264-3.072a48.128 48.128 0 0 0 39.936-52.224v-4.096l-2.389333-3.413333-52.565334-71.68-2.389333-3.413334-4.096-2.048a39.253333 39.253333 0 0 0-16.725333-4.096z" fill="#FFFFFF" p-id="20309"></path><path d="M602.453333 620.544a43.349333 43.349333 0 0 1 3.754667 18.432 40.277333 40.277333 0 0 1-2.048 16.384l-59.050667 5.802667 3.754667 43.690666a64.853333 64.853333 0 0 1-44.032 7.509334l-3.754667-49.493334-58.368 5.461334a32.085333 32.085333 0 0 1-5.461333-20.138667 30.037333 30.037333 0 0 1 5.461333-14.677333l57.002667-3.754667v-20.138667l-64.170667 4.778667a32.085333 32.085333 0 0 1-5.461333-20.138667 30.037333 30.037333 0 0 1 5.461333-14.677333l58.709334-5.461333v-10.922667l78.848-130.389333c21.845333-2.389333 34.133333 8.874667 36.522666 22.186666l-68.266666 115.370667 57.002666-3.754667a43.349333 43.349333 0 0 1 3.413334 18.432 45.738667 45.738667 0 0 1-1.706667 16.725334l-58.709333 3.413333 2.048 20.138667z" fill="#FF6969" p-id="20310"></path><path d="M579.242667 433.152a28.330667 28.330667 0 0 1 30.378666 22.528l-68.266666 115.370667 57.002666-3.754667a43.349333 43.349333 0 0 1 3.413334 18.432 45.738667 45.738667 0 0 1-1.706667 16.725333l-58.709333 3.413334 2.048 20.138666 60.416-5.461333a43.349333 43.349333 0 0 1 3.754666 18.432 40.277333 40.277333 0 0 1-2.048 16.384l-60.416 5.802667 3.754667 43.690666a58.368 58.368 0 0 1-31.744 8.533334 74.752 74.752 0 0 1-12.288 0l-3.754667-49.493334-58.368 4.437334a32.085333 32.085333 0 0 1-5.461333-20.138667 30.037333 30.037333 0 0 1 5.461333-14.677333l57.002667-3.754667v-20.138667l-64.170667 4.778667a32.085333 32.085333 0 0 1-5.461333-20.138667 30.037333 30.037333 0 0 1 5.461333-14.677333l58.709334-5.461333v-10.922667l78.848-130.389333h6.144m0-17.066667h-16.384l-4.437334 7.168-78.848 130.389333-2.389333 4.096-43.349333 4.096h-8.533334l-4.437333 7.168a46.762667 46.762667 0 0 0-7.850667 23.552 50.176 50.176 0 0 0 8.874667 30.378667l2.389333 3.072a40.277333 40.277333 0 0 0-5.802666 19.797333 50.176 50.176 0 0 0 8.874666 30.378667l5.802667 7.509333h9.557333l41.301334-0.682666 2.389333 32.426666v13.653334l13.653333 1.706666a73.386667 73.386667 0 0 0 14.677334 0 75.776 75.776 0 0 0 40.277333-10.922666l9.216-5.461334v-10.581333l-2.389333-26.965333 43.690666-4.096h9.216l4.437334-8.533334a52.224 52.224 0 0 0 3.754666-24.234666 60.416 60.416 0 0 0-5.461333-25.941334l-2.730667-5.461333a68.266667 68.266667 0 0 0 2.389334-21.845333 55.978667 55.978667 0 0 0-3.754667-26.624l-4.778667-10.24h-35.84l52.906667-87.381334 3.413333-5.461333v-6.485333a45.738667 45.738667 0 0 0-49.834666-34.133334z" fill="#FFFFFF" p-id="20311"></path></svg>