<?xml version="1.0" standalone="no"?><!DOCTYPE svg PUBLIC "-//W3C//DTD SVG 1.1//EN" "http://www.w3.org/Graphics/SVG/1.1/DTD/svg11.dtd"><svg t="1574147925888" class="icon" viewBox="0 0 1024 1024" version="1.1" xmlns="http://www.w3.org/2000/svg" p-id="42563" xmlns:xlink="http://www.w3.org/1999/xlink" width="48" height="48"><defs><style type="text/css"></style></defs><path d="M617.6 405.6c-13.6-13.6-29.6-24-48-32s-37.6-12-58.4-12c-20.8 0-40 4-57.6 12-18.4 8-33.6 18.4-47.2 32-13.6 13.6-24 29.6-32 47.2-8 18.4-12 37.6-12 57.6 0 20.8 4 40 12 58.4s18.4 34.4 32 48c13.6 13.6 29.6 24.8 47.2 32 18.4 8 37.6 12 57.6 12 20.8 0 40-4 58.4-12s34.4-18.4 48-32c13.6-13.6 24-29.6 32-48s12-37.6 12-58.4c0-20.8-4-40-12-57.6s-19.2-33.6-32-47.2z" fill="#FFAF01" p-id="42564"></path><path d="M512 0C229.6 0 0 229.6 0 512s229.6 512 512 512 512-229.6 512-512S794.4 0 512 0z m266.4 552.8c8.8 12 19.2 20 33.6 24.8 3.2 1.6 5.6 4 8 5.6 4.8 4 8.8 9.6 10.4 16 0.8 5.6 0.8 12-0.8 20s-4 16-7.2 24-7.2 15.2-12 21.6c-4.8 6.4-9.6 11.2-15.2 13.6-5.6 2.4-10.4 4-14.4 4s-8.8-0.8-13.6-2.4c-4.8-1.6-10.4-2.4-16.8-4-7.2-0.8-13.6-1.6-20.8-0.8-7.2 0.8-14.4 2.4-20.8 4.8-7.2 2.4-12.8 6.4-18.4 12-11.2 11.2-17.6 24-19.2 39.2-1.6 14.4 0 28.8 6.4 41.6 4.8 8.8 4 18.4-2.4 27.2-2.4 4-7.2 7.2-12.8 11.2-6.4 4-12.8 7.2-19.2 10.4-7.2 3.2-14.4 5.6-22.4 7.2-8 1.6-14.4 2.4-20.8 2.4-4 0-8-1.6-12-4.8-4-3.2-6.4-6.4-7.2-10.4h-0.8c-4.8-14.4-13.6-26.4-25.6-36.8-12-10.4-26.4-15.2-42.4-15.2-15.2 0-29.6 4.8-42.4 15.2-12.8 10.4-21.6 22.4-26.4 36-2.4 5.6-5.6 9.6-10.4 12-4.8 2.4-9.6 4-15.2 4-6.4 0-13.6-0.8-21.6-3.2-8-2.4-16-4.8-24-8.8-8-3.2-15.2-7.2-21.6-12-6.4-4.8-11.2-8.8-14.4-13.6-2.4-3.2-3.2-7.2-4-11.2 0-4.8 1.6-10.4 4.8-18.4 4.8-10.4 7.2-22.4 5.6-36-0.8-13.6-7.2-26.4-17.6-37.6-6.4-7.2-14.4-11.2-23.2-13.6-8.8-2.4-17.6-2.4-26.4-2.4-9.6 0.8-19.2 2.4-29.6 5.6-6.4 1.6-12.8 1.6-19.2-1.6-4.8-1.6-9.6-6.4-14.4-12.8-4-6.4-8-14.4-12-21.6-3.2-8-6.4-16-8-24.8-1.6-8.8-2.4-15.2-1.6-20.8 1.6-10.4 5.6-16.8 13.6-19.2 13.6-5.6 26.4-14.4 36.8-27.2 11.2-12.8 16.8-26.4 16.8-42.4s-5.6-29.6-16.8-41.6c-11.2-12-23.2-20.8-36.8-26.4-4-1.6-7.2-4.8-10.4-9.6-2.4-5.6-4-10.4-4-16s0.8-12.8 2.4-20c1.6-7.2 4-14.4 7.2-21.6 3.2-7.2 6.4-12.8 10.4-19.2 4-5.6 8-9.6 12.8-12.8 4-2.4 7.2-3.2 10.4-2.4 3.2 0.8 7.2 1.6 11.2 2.4 13.6 5.6 28 7.2 43.2 4.8 15.2-2.4 28-8.8 39.2-19.2 5.6-5.6 9.6-12 12-20 2.4-8 4-16 4.8-24 0.8-8 0.8-15.2 0-21.6-0.8-6.4-1.6-11.2-1.6-13.6-0.8-2.4-1.6-5.6-2.4-9.6-0.8-4 0-7.2 0.8-9.6 2.4-6.4 8-12 14.4-16.8 7.2-4.8 14.4-8.8 23.2-12 8-3.2 16-5.6 24-7.2 8-1.6 13.6-2.4 18.4-2.4 5.6 0 10.4 1.6 14.4 5.6 3.2 4 5.6 8 7.2 12 4.8 12 13.6 23.2 24.8 32.8 11.2 9.6 24.8 14.4 40.8 14.4 16 0 30.4-4.8 42.4-13.6a77.6 77.6 0 0 0 26.4-33.6c1.6-4 4.8-7.2 8.8-11.2 4-4 8-5.6 12-5.6 6.4 0 13.6 0.8 20.8 2.4 7.2 1.6 15.2 4 22.4 7.2 7.2 3.2 13.6 7.2 20 12s11.2 10.4 14.4 16.8c2.4 4 3.2 8 2.4 12-0.8 4-1.6 7.2-2.4 9.6-5.6 13.6-8 27.2-5.6 41.6 2.4 14.4 8.8 27.2 20 38.4s24.8 16.8 40.8 18.4c16 0.8 31.2-1.6 44.8-8 4-2.4 8-3.2 13.6-2.4 5.6 0.8 9.6 2.4 13.6 6.4 7.2 6.4 12.8 16 18.4 28.8 5.6 12.8 8.8 26.4 10.4 39.2 0.8 8 0 13.6-4 18.4-3.2 4-7.2 7.2-10.4 8.8-14.4 4.8-26.4 13.6-36 26.4-10.4 12.8-15.2 27.2-15.2 43.2 0.8 16 5.6 29.6 13.6 41.6z" fill="#FFAF01" p-id="42565"></path></svg>