<?xml version="1.0" standalone="no"?><!DOCTYPE svg PUBLIC "-//W3C//DTD SVG 1.1//EN" "http://www.w3.org/Graphics/SVG/1.1/DTD/svg11.dtd"><svg t="1583825376216" class="icon" viewBox="0 0 1024 1024" version="1.1" xmlns="http://www.w3.org/2000/svg" p-id="10013" width="32" height="32" xmlns:xlink="http://www.w3.org/1999/xlink"><defs><style type="text/css"></style></defs><path d="M963.295626 982.108777c0 22.753578-18.254661 41.203235-40.779243 41.203236-22.526582 0-40.782243-18.449658-40.782243-41.203236l-0.357994-3.846928c0-1.62997 0.292995-3.193941 0.455992-4.791911-25.459528-180.857644-178.93368-313.764178-365.822212-315.84814-1.498972 0.031999-2.933946 0.227996-4.432918 0.227996s-2.934946-0.194996-4.399919-0.227996C322.438517 659.707759 170.431338 789.645348 142.396858 967.372051c0.912983 3.488935 1.59597 7.107868 1.59597 10.887798l0.391993 3.878928c0 23.111571-18.549656 41.857223-41.432231 41.857223-22.852576 0-41.433231-18.744652-41.433231-41.857223l-0.032-0.389993h-0.781985c0.096998-1.206978 0.357993-2.380956 0.487991-3.586933 0-3.455936 0.52199-6.714875 1.303975-9.942816 21.219606-166.707907 131.827554-301.537405 282.334762-359.595328-87.625374-56.720948-144.769314-156.962088-144.769314-271.481963 0-177.108714 136.229472-320.706049 311.545219-320.706049 175.283748 0 311.51322 143.597336 311.51322 320.706049 0 114.486876-57.079941 214.696016-144.673315 271.415964 149.464227 57.602931 259.550184 190.866459 281.978768 355.913397 1.531972 4.33592 2.541953 8.931834 2.541952 13.789744l0.325994 3.846928z m-211.79307-644.868034c0-133.914515-107.446006-242.468501-239.991547-242.468501-132.546541 0-239.991547 108.585985-239.991547 242.468501 0 133.916515 107.445006 242.469501 239.991547 242.469501 132.512541 0 239.991547-108.552986 239.991547-242.469501z" p-id="10014" fill="#8a8a8a"></path></svg>