<?xml version="1.0" standalone="no"?><!DOCTYPE svg PUBLIC "-//W3C//DTD SVG 1.1//EN" "http://www.w3.org/Graphics/SVG/1.1/DTD/svg11.dtd"><svg t="1574149895493" class="icon" viewBox="0 0 1024 1024" version="1.1" xmlns="http://www.w3.org/2000/svg" p-id="48130" xmlns:xlink="http://www.w3.org/1999/xlink" width="64" height="64"><defs><style type="text/css"></style></defs><path d="M550.0928 971.264a466.9952 466.9952 0 0 1-72.1408 0.3072L477.8496 972.8l-22.5792-3.4816a459.8784 459.8784 0 0 1-29.184-4.5056 14018.56 14018.56 0 0 1-43.6736-6.912 236.8512 236.8512 0 0 1-81.7152-32.8192c-8.4992-5.7344-20.8384-12.288-26.7776-17.9712-1.536-1.3824-8.3456-5.12-12.1344-8.0896a460.8 460.8 0 1 1 541.2864-29.7472l-0.0512 0.3584c-0.3584 1.7408-1.6896 1.8432-3.072 2.1504a462.848 462.848 0 0 1-3.2256 2.56c-10.2912 13.9776-30.8224 24.4736-51.2 37.5808-19.0976 12.288-61.696 29.5936-97.1776 40.3968a457.472 457.472 0 0 1-43.52 11.1104c-31.0272 6.656-54.6304 9.3696-54.6304 9.3696l-0.1024-1.536z m0 0a460.4928 460.4928 0 0 0 98.2528-18.944 459.5712 459.5712 0 0 0 148.3776-77.9776 42.8544 42.8544 0 0 0 0.768-1.024c0.6144-1.024 1.536-1.28 2.4064-1.536l3.1744-2.56c2.4064-14.336-9.216-36.864-11.1104-45.4144A272.9984 272.9984 0 0 0 570.6752 614.4l-33.6384 61.184-36.2496 0.8704-34.2016-59.392a272.9472 272.9472 0 0 0-209.92 219.648c-1.0752 6.4-1.2288 32.0512 2.56 59.392 0.1024 0.7168 1.1264 1.792 2.56 2.9184a458.0864 458.0864 0 0 0 164.352 65.792l29.1328 4.5056c7.5264 0.9216 15.104 1.6896 22.6816 2.2528l29.9008-295.1168h22.3744l19.8656 294.8096z m-25.2928-401.664a156.8256 156.8256 0 1 0 0-313.6 156.8256 156.8256 0 0 0 0 313.6z" p-id="48131" fill="#8a8a8a"></path></svg>